<svg id="svg" version="1.1" xmlns="http://www.w3.org/2000/svg" xmlns:xlink="http://www.w3.org/1999/xlink" width="400" height="302.5925925925926" viewBox="0, 0, 400,302.5925925925926"><g id="svgg"><path id="path0" d="M0.000 151.400 L 0.000 302.801 200.000 302.801 L 400.000 302.801 400.000 151.400 L 400.000 0.000 200.000 0.000 L 0.000 0.000 0.000 151.400 M298.684 89.128 C 300.408 90.258,300.388 91.975,298.616 94.928 C 297.406 96.944,292.996 101.551,292.449 101.369 C 291.723 101.127,291.291 99.060,291.634 97.465 C 291.811 96.636,291.873 95.250,291.772 94.384 C 291.670 93.517,291.506 92.133,291.407 91.308 C 291.091 88.667,295.819 87.251,298.684 89.128 M111.319 119.257 C 119.090 124.887,116.303 136.866,107.223 136.866 C 106.757 136.866,106.036 137.046,101.634 138.260 C 100.369 138.609,99.858 138.598,97.975 138.184 L 95.787 137.703 91.875 139.144 C 87.256 140.844,86.232 141.334,84.436 142.706 C 81.465 144.974,80.106 144.300,80.291 140.650 C 80.444 137.607,81.408 136.298,88.091 130.050 C 95.393 123.224,96.075 122.809,98.838 123.504 C 100.592 123.946,101.077 123.722,102.692 121.726 C 105.324 118.473,108.845 117.466,111.319 119.257 M348.754 138.790 C 351.019 141.248,350.869 141.665,345.843 146.866 C 344.157 148.610,342.776 150.114,342.774 150.207 C 342.772 150.301,346.074 150.573,350.110 150.813 C 358.769 151.327,359.191 151.527,355.431 153.330 C 352.790 154.595,350.943 154.921,344.133 155.320 L 338.986 155.621 338.131 156.615 C 337.186 157.715,333.960 164.137,332.461 167.903 C 330.743 172.223,330.318 173.567,328.831 179.410 C 325.855 191.099,326.204 190.310,324.007 190.310 C 322.061 190.310,322.033 190.263,322.083 187.036 C 322.182 180.714,325.907 166.835,329.594 159.050 C 330.325 157.507,330.829 156.232,330.715 156.216 C 330.601 156.200,330.030 156.204,329.447 156.225 C 325.050 156.387,322.796 155.366,322.802 153.217 C 322.808 151.015,324.265 150.560,331.476 150.511 L 334.261 150.492 335.104 149.357 C 336.983 146.822,340.444 142.915,343.151 140.273 C 346.549 136.955,346.961 136.846,348.754 138.790 M168.846 138.484 C 170.358 139.785,169.858 141.723,166.372 148.070 C 163.044 154.131,161.102 158.225,159.407 162.755 C 158.846 164.254,158.037 166.419,157.609 167.565 C 156.520 170.484,156.824 170.425,159.981 167.104 C 165.552 161.244,173.173 155.934,175.995 155.947 C 177.438 155.953,180.604 156.753,181.993 157.461 C 183.837 158.402,183.574 159.793,180.101 167.449 C 178.930 170.030,177.443 173.405,176.796 174.948 C 175.626 177.738,173.989 181.419,173.532 182.286 C 173.071 183.159,171.169 183.025,170.195 182.051 C 168.290 180.146,168.891 175.768,171.979 169.044 C 173.965 164.721,174.420 162.134,172.865 164.008 C 172.639 164.280,171.945 164.824,171.324 165.217 C 167.520 167.618,159.996 176.727,156.099 183.649 C 152.593 189.877,149.361 193.621,147.686 193.396 C 143.166 192.790,142.869 190.852,145.911 181.832 C 146.248 180.833,147.129 178.176,147.869 175.927 C 153.459 158.945,160.665 142.355,164.078 138.607 C 165.115 137.470,167.592 137.406,168.846 138.484 M317.350 144.031 C 320.056 146.476,319.211 148.976,316.290 147.170 C 314.176 145.864,313.710 144.892,314.632 143.720 C 315.464 142.663,315.889 142.711,317.350 144.031 M89.932 153.823 L 90.083 156.397 95.382 156.587 C 98.297 156.691,103.278 156.794,106.452 156.814 C 110.562 156.840,112.362 156.960,112.704 157.229 C 113.535 157.884,116.035 162.275,120.591 171.083 C 121.927 173.664,123.121 175.912,123.244 176.079 C 124.105 177.237,130.225 189.972,130.090 190.324 C 129.447 191.998,127.821 190.046,124.616 183.754 C 113.441 161.811,112.379 159.954,111.670 161.113 C 111.170 161.929,102.383 178.603,99.953 183.346 C 97.833 187.484,96.424 189.888,95.940 190.195 C 94.775 190.933,45.117 190.415,45.117 189.664 C 45.117 188.770,47.423 184.035,51.070 177.441 C 52.405 175.026,55.225 169.635,57.335 165.459 C 59.445 161.284,61.340 157.648,61.547 157.378 C 61.957 156.844,75.128 156.454,75.927 156.953 C 76.193 157.119,76.306 158.180,76.306 160.502 L 76.306 163.815 80.242 163.815 L 84.179 163.815 84.216 161.014 C 84.360 150.355,84.143 151.051,87.278 151.161 L 89.780 151.249 89.932 153.823 M283.876 153.973 C 288.847 156.409,287.913 158.179,276.609 167.744 C 268.554 174.559,258.896 185.078,256.655 189.478 L 256.154 190.462 256.929 190.462 C 258.556 190.462,264.370 186.864,268.887 183.062 C 272.746 179.814,273.270 179.470,274.000 179.701 C 274.838 179.967,274.848 179.913,273.334 183.401 C 267.562 196.699,253.202 200.810,250.754 189.866 C 249.899 186.044,254.337 179.251,264.034 169.545 L 268.746 164.828 267.002 164.009 C 262.549 161.917,263.579 159.445,270.338 156.003 C 276.493 152.867,280.418 152.279,283.876 153.973 M201.884 154.319 C 203.245 154.804,204.782 156.448,205.321 157.995 L 205.629 158.879 209.022 159.062 C 216.712 159.477,220.742 160.177,220.742 161.097 C 220.742 162.241,219.672 162.446,212.869 162.604 L 206.359 162.755 206.178 168.509 C 205.935 176.258,204.819 179.405,200.908 183.372 C 193.323 191.069,182.551 183.943,185.730 173.331 C 187.133 168.648,190.357 162.684,193.219 159.475 C 194.682 157.835,194.792 157.604,194.744 156.270 C 194.652 153.653,197.692 152.822,201.884 154.319 M311.687 155.256 C 315.086 157.124,315.238 158.109,312.793 162.425 C 311.794 164.189,310.143 167.097,309.125 168.887 C 304.885 176.342,303.304 180.472,303.330 184.027 C 303.353 187.085,303.248 187.234,301.650 186.403 C 295.999 183.462,297.857 172.899,306.317 159.871 C 309.741 154.598,310.033 154.347,311.687 155.256 M249.334 160.569 C 252.811 162.459,252.814 161.932,249.276 171.385 C 246.779 178.058,244.251 185.858,243.634 188.796 C 242.938 192.113,242.338 192.770,240.232 192.529 C 237.871 192.258,237.885 184.209,240.261 176.382 C 241.169 173.387,240.918 173.479,236.802 177.652 C 228.602 185.964,222.902 187.854,218.866 183.601 C 215.870 180.444,215.937 175.250,219.045 169.720 L 220.066 167.903 221.662 167.810 C 226.512 167.527,226.986 170.049,223.433 177.243 C 221.917 180.314,222.148 180.794,224.531 179.523 C 226.494 178.475,231.254 174.142,235.022 169.972 C 243.958 160.083,245.988 158.749,249.334 160.569 M197.121 163.285 C 196.746 164.160,195.656 166.578,194.700 168.660 C 192.446 173.569,190.393 179.545,190.517 180.837 C 190.844 184.227,196.554 179.503,198.465 174.262 C 199.252 172.104,200.917 162.503,200.595 161.982 C 199.930 160.905,197.800 161.704,197.121 163.285 M267.713 209.857 C 268.006 210.265,268.269 210.871,268.298 211.204 C 268.568 214.286,267.652 215.693,265.477 215.536 L 264.194 215.443 264.108 212.209 L 264.022 208.975 264.865 208.872 C 266.167 208.713,267.130 209.046,267.713 209.857 M313.248 212.268 C 313.248 215.157,313.171 215.746,312.793 215.746 C 312.420 215.746,312.324 215.108,312.254 212.164 C 312.175 208.865,312.211 208.590,312.708 208.686 C 313.188 208.778,313.248 209.172,313.248 212.268 M162.860 209.120 C 163.996 209.347,164.240 209.977,163.964 211.978 L 163.758 213.475 162.576 213.475 C 161.552 213.475,161.392 213.566,161.388 214.156 C 161.382 215.129,160.971 215.646,160.385 215.421 C 159.864 215.221,159.593 209.622,160.081 209.134 C 160.334 208.881,161.633 208.875,162.860 209.120 M170.483 211.937 C 170.605 214.124,170.755 214.827,171.164 215.126 C 171.863 215.637,171.829 216.200,171.100 216.200 C 169.965 216.200,169.569 215.078,169.569 211.868 C 169.569 207.821,170.255 207.873,170.483 211.937 M180.436 209.650 C 181.145 210.504,181.180 213.673,180.487 214.365 C 179.482 215.370,177.628 215.147,177.497 214.005 C 177.389 213.064,177.924 212.888,178.500 213.675 C 179.007 214.369,179.864 213.976,179.864 213.049 C 179.864 212.433,179.697 212.285,178.910 212.207 C 177.759 212.092,177.281 211.429,177.557 210.329 C 177.867 209.095,179.630 208.678,180.436 209.650 M198.657 209.246 C 199.263 209.570,199.424 210.600,198.980 211.302 C 198.826 211.544,198.931 212.107,199.248 212.727 C 200.230 214.653,199.118 216.295,197.299 215.603 C 196.587 215.333,196.567 215.239,196.616 212.356 C 196.673 208.938,197.040 208.380,198.657 209.246 M215.443 212.188 C 215.443 214.044,215.321 215.298,215.140 215.307 C 214.800 215.325,214.802 215.334,214.512 212.415 C 214.396 211.249,214.240 210.466,214.165 210.676 C 213.979 211.195,213.475 210.838,213.475 210.187 C 213.475 209.450,214.111 208.893,214.834 208.997 C 215.399 209.078,215.443 209.309,215.443 212.188 M225.056 209.127 C 226.416 209.352,226.992 210.809,226.646 213.150 C 226.356 215.110,225.819 215.594,223.935 215.594 C 221.842 215.594,221.649 215.326,221.655 212.430 C 221.661 209.009,222.052 208.630,225.056 209.127 M241.563 209.124 C 243.082 209.532,242.635 212.063,240.966 212.502 C 240.029 212.748,239.970 212.843,239.970 214.103 C 239.970 215.241,239.878 215.443,239.364 215.443 C 238.804 215.443,238.752 215.212,238.672 212.360 L 238.586 209.278 239.429 209.151 C 239.893 209.081,240.409 209.005,240.575 208.982 C 240.742 208.959,241.186 209.023,241.563 209.124 M285.238 212.112 C 285.238 215.090,285.200 215.291,284.633 215.291 C 284.127 215.291,284.027 215.090,284.027 214.060 C 284.027 212.441,282.484 212.326,282.210 213.925 C 281.804 216.291,280.971 215.157,281.063 212.364 C 281.158 209.472,281.949 208.356,282.153 210.825 C 282.321 212.858,284.027 212.514,284.027 210.447 C 284.027 209.134,284.108 208.933,284.633 208.933 C 285.200 208.933,285.238 209.134,285.238 212.112 M294.805 209.570 C 297.174 212.187,293.919 217.175,291.252 215.015 C 290.277 214.225,290.192 210.045,291.138 209.353 C 292.042 208.692,294.123 208.815,294.805 209.570 M146.412 211.247 C 147.439 213.665,147.145 214.763,145.425 214.931 C 143.234 215.145,142.898 214.425,143.859 211.573 C 144.895 208.497,145.225 208.455,146.412 211.247 M248.090 210.211 C 248.934 211.342,249.233 215.401,248.460 215.246 C 248.047 215.163,247.901 214.742,247.796 213.323 C 247.721 212.324,247.463 211.111,247.221 210.627 C 246.411 209.003,246.983 208.728,248.090 210.211 M256.024 210.761 C 256.920 212.529,257.232 212.496,257.516 210.602 C 257.659 209.647,257.864 209.235,258.197 209.235 C 258.599 209.235,258.635 209.462,258.427 210.674 C 258.290 211.465,258.164 212.793,258.145 213.626 C 258.101 215.551,257.513 215.633,256.530 213.850 C 255.698 212.342,255.261 212.427,255.261 214.098 C 255.261 214.957,255.134 215.291,254.807 215.291 C 254.436 215.291,254.353 214.776,254.353 212.465 C 254.353 208.664,254.754 208.255,256.024 210.761 M302.609 210.980 C 303.321 212.960,303.520 212.959,304.260 210.977 C 305.353 208.045,306.283 208.637,306.283 212.263 C 306.283 215.594,305.531 216.547,305.207 213.626 L 305.039 212.112 304.360 213.550 C 303.530 215.308,302.931 215.386,302.502 213.790 C 302.129 212.408,301.592 211.901,301.586 212.927 C 301.579 214.117,301.236 214.989,300.777 214.989 C 300.361 214.989,300.420 210.957,300.855 209.592 C 301.136 208.709,302.054 209.436,302.609 210.980 M191.231 209.861 C 191.520 210.329,191.462 210.344,188.721 210.546 C 186.705 210.695,186.223 210.649,186.223 210.311 C 186.223 209.554,190.788 209.144,191.231 209.861 M223.421 209.849 C 222.098 210.621,222.481 214.989,223.871 214.989 C 224.982 214.989,225.284 214.405,225.284 212.263 C 225.284 209.782,224.741 209.078,223.421 209.849 M265.078 209.947 C 264.650 211.063,265.100 214.528,265.688 214.640 C 266.974 214.885,267.710 211.130,266.595 210.014 C 266.011 209.430,265.288 209.398,265.078 209.947 M161.393 211.052 C 161.393 212.179,161.462 212.296,162.074 212.209 C 162.633 212.130,162.755 211.921,162.755 211.052 C 162.755 210.184,162.633 209.975,162.074 209.896 C 161.462 209.809,161.393 209.926,161.393 211.052 M197.275 210.144 C 197.021 210.554,197.363 211.052,197.898 211.052 C 198.138 211.052,198.335 210.780,198.335 210.447 C 198.335 209.820,197.604 209.611,197.275 210.144 M239.935 210.278 C 239.664 210.984,239.938 211.795,240.483 211.900 C 241.084 212.016,241.709 210.993,241.450 210.317 C 241.221 209.720,240.159 209.693,239.935 210.278 M292.026 210.253 C 291.465 211.715,292.050 214.232,292.951 214.232 C 294.458 214.232,295.140 211.645,293.997 210.268 C 293.545 209.723,292.233 209.713,292.026 210.253 M178.705 210.646 C 178.764 210.953,179.015 211.204,179.262 211.204 C 179.911 211.204,179.818 210.324,179.155 210.196 C 178.750 210.118,178.627 210.242,178.705 210.646 M188.897 214.080 C 189.691 214.080,190.498 213.923,190.691 213.730 C 191.098 213.322,191.976 213.881,191.976 214.547 C 191.976 215.828,186.526 215.283,186.275 213.976 C 186.053 212.827,186.537 212.349,187.013 213.248 C 187.399 213.978,187.631 214.080,188.897 214.080 M197.628 212.768 C 197.301 213.095,197.397 214.632,197.758 214.855 C 198.416 215.262,199.083 214.181,198.698 213.334 C 198.348 212.567,198.009 212.387,197.628 212.768 M144.436 213.442 C 144.436 213.783,145.224 214.100,145.466 213.858 C 145.831 213.493,145.632 213.172,145.042 213.172 C 144.709 213.172,144.436 213.294,144.436 213.442 M148.319 214.484 C 148.385 214.824,148.212 214.989,147.789 214.989 C 147.444 214.989,147.161 214.807,147.161 214.585 C 147.161 213.658,148.142 213.572,148.319 214.484 " stroke="none" fill="#fbfbfb" fill-rule="evenodd"></path><path id="path1" d="M292.177 89.655 C 291.685 90.147,291.599 90.466,291.789 91.094 C 291.923 91.537,292.051 93.671,292.073 95.836 C 292.095 98.002,292.133 100.011,292.158 100.303 C 292.355 102.628,299.470 94.238,299.470 91.681 C 299.470 89.169,294.143 87.689,292.177 89.655 M345.193 138.853 C 342.909 140.651,337.697 146.367,335.796 149.160 C 334.462 151.120,334.707 151.029,330.693 151.069 C 323.923 151.137,323.089 151.389,323.089 153.363 C 323.089 155.111,324.206 155.640,327.902 155.640 C 331.692 155.640,331.947 155.793,330.869 157.421 C 329.738 159.131,326.863 166.636,325.663 171.011 C 325.082 173.132,324.392 175.588,324.131 176.468 C 322.040 183.518,321.976 190.159,324.000 190.159 C 325.683 190.159,326.024 189.395,328.053 181.075 C 330.202 172.264,331.403 168.868,335.067 161.241 C 338.050 155.032,337.515 155.352,345.946 154.738 C 351.904 154.304,353.386 154.034,355.413 153.012 C 357.379 152.020,357.416 151.704,355.564 151.701 C 354.773 151.700,353.308 151.574,352.309 151.421 C 351.310 151.269,348.618 151.052,346.329 150.939 C 341.347 150.692,341.413 150.874,344.971 147.190 C 350.614 141.347,350.661 141.242,348.589 139.201 C 346.858 137.496,346.910 137.501,345.193 138.853 M165.134 138.371 C 162.944 139.278,156.740 152.159,151.347 166.995 C 149.095 173.189,144.526 187.266,144.013 189.593 C 143.712 190.955,146.202 193.187,148.023 193.187 C 149.304 193.187,151.964 189.706,157.294 181.057 C 161.665 173.966,166.510 168.365,171.567 164.559 C 175.305 161.746,175.371 162.390,172.099 169.761 C 169.096 176.526,168.640 179.890,170.476 181.726 C 172.154 183.404,172.983 182.961,174.250 179.712 C 174.704 178.547,175.240 177.320,175.440 176.987 C 175.640 176.654,176.194 175.428,176.672 174.262 C 177.149 173.096,178.540 169.935,179.761 167.238 C 181.606 163.166,182.892 159.633,182.892 158.639 C 182.892 157.597,177.017 156.010,175.056 156.523 C 171.789 157.377,166.040 161.549,160.747 166.907 C 155.887 171.828,155.397 171.844,157.340 167.018 C 157.737 166.032,158.062 165.116,158.062 164.983 C 158.062 164.850,158.381 164.022,158.771 163.143 C 159.160 162.264,159.709 160.916,159.990 160.149 C 160.523 158.696,164.309 151.031,167.446 145.058 C 169.399 141.337,169.725 139.788,168.736 138.914 C 168.072 138.327,165.995 138.014,165.134 138.371 M314.974 143.891 C 314.416 144.449,314.539 145.254,315.291 145.964 C 317.863 148.391,319.889 147.163,317.452 144.654 C 316.319 143.488,315.599 143.266,314.974 143.891 M277.668 153.645 C 273.299 154.623,266.283 158.186,265.064 160.046 C 264.135 161.465,265.727 163.536,268.089 163.979 C 269.879 164.315,269.739 164.567,265.529 168.599 C 254.370 179.283,249.717 186.847,251.615 191.219 C 255.453 200.063,267.640 195.388,273.147 182.959 C 274.863 179.086,274.403 179.014,270.145 182.492 C 262.586 188.668,257.160 191.876,256.088 190.804 C 254.652 189.368,266.395 175.754,275.852 167.892 C 281.302 163.361,285.283 159.576,286.001 158.242 C 287.489 155.479,282.291 152.611,277.668 153.645 M332.324 153.520 C 332.221 153.687,331.430 153.821,330.565 153.818 C 329.439 153.815,329.122 153.730,329.447 153.520 C 330.058 153.126,332.568 153.126,332.324 153.520 M195.509 154.751 C 195.162 155.245,195.070 155.793,195.197 156.591 C 195.356 157.581,195.262 157.836,194.472 158.576 C 192.060 160.833,187.887 167.972,186.377 172.422 C 181.921 185.559,196.597 191.718,203.387 179.561 C 205.455 175.859,205.750 174.501,205.788 168.509 C 205.807 165.511,205.841 162.895,205.863 162.696 C 205.894 162.430,207.709 162.309,212.707 162.242 C 219.646 162.148,221.321 161.832,220.275 160.812 C 219.990 160.534,213.636 159.768,208.063 159.340 L 205.224 159.122 204.732 157.865 C 203.708 155.252,202.297 154.406,198.616 154.196 C 196.140 154.055,195.976 154.084,195.509 154.751 M308.503 157.381 C 299.071 170.621,296.126 182.356,301.383 185.754 C 302.796 186.667,302.928 186.532,302.846 184.254 C 302.713 180.557,305.381 174.197,311.038 164.724 C 315.055 157.997,315.096 157.663,312.125 155.959 C 310.095 154.795,310.442 154.658,308.503 157.381 M245.420 160.546 C 244.271 161.139,241.140 164.184,232.545 173.069 C 224.770 181.106,220.069 183.139,222.996 177.198 C 226.460 170.168,226.018 167.723,221.356 168.116 C 218.365 168.368,215.852 178.274,217.928 181.627 C 221.796 187.875,227.513 186.515,236.702 177.161 C 241.731 172.041,241.747 172.044,240.239 177.896 C 238.039 186.432,238.429 192.683,241.125 192.115 C 242.491 191.827,242.488 191.833,243.485 187.853 C 244.507 183.774,247.498 174.722,249.817 168.690 C 251.954 163.135,251.975 162.928,250.523 161.790 C 248.202 159.970,247.071 159.694,245.420 160.546 M200.819 161.583 C 201.349 161.910,199.960 171.299,198.944 174.252 C 197.288 179.066,192.608 183.347,190.477 181.999 C 189.318 181.266,191.198 175.017,194.962 167.096 C 195.779 165.375,196.748 163.302,197.114 162.491 L 197.779 161.015 199.141 161.201 C 199.891 161.304,200.646 161.476,200.819 161.583 M312.528 212.036 C 312.505 214.030,312.608 215.291,312.793 215.291 C 313.150 215.291,313.160 212.116,312.809 210.144 C 312.612 209.038,312.559 209.394,312.528 212.036 M160.459 209.360 C 160.203 209.613,160.537 214.989,160.809 214.989 C 160.963 214.989,161.090 214.580,161.090 214.080 C 161.090 213.242,161.173 213.172,162.159 213.172 C 163.372 213.172,163.608 212.816,163.642 210.930 C 163.659 209.978,163.542 209.684,163.109 209.596 C 162.638 209.501,162.603 209.577,162.882 210.097 C 163.360 210.991,163.286 211.581,162.611 212.257 C 161.633 213.235,161.090 212.740,161.090 210.868 C 161.090 209.436,160.883 208.941,160.459 209.360 M214.220 209.661 C 213.675 210.059,213.690 210.076,214.461 209.929 C 214.914 209.843,215.210 209.651,215.119 209.504 C 214.906 209.159,214.906 209.159,214.220 209.661 M144.959 209.730 C 144.485 210.497,143.508 213.803,143.675 214.074 C 144.041 214.666,144.446 214.378,144.265 213.655 C 144.124 213.092,144.225 212.881,144.710 212.727 C 145.656 212.427,146.034 212.818,145.835 213.890 L 145.659 214.837 146.266 214.114 C 146.936 213.315,146.880 212.912,145.806 210.779 C 145.437 210.045,145.056 209.573,144.959 209.730 M169.920 211.978 C 169.883 213.941,169.987 214.713,170.348 215.158 C 170.610 215.481,170.715 215.541,170.580 215.291 C 170.446 215.042,170.253 213.611,170.152 212.112 L 169.969 209.387 169.920 211.978 M178.218 209.810 C 178.125 209.959,178.492 210.061,179.032 210.037 L 180.015 209.992 180.014 212.163 C 180.013 213.947,180.085 214.273,180.420 213.996 C 180.882 213.612,180.645 210.580,180.100 209.917 C 179.742 209.480,178.466 209.408,178.218 209.810 M225.533 212.260 C 225.440 214.845,225.597 215.583,226.008 214.510 C 226.300 213.750,226.222 209.895,225.911 209.703 C 225.748 209.602,225.589 210.681,225.533 212.260 M238.910 212.246 C 238.910 215.048,239.490 216.532,239.546 213.871 C 239.562 213.070,239.596 211.768,239.621 210.977 C 239.652 210.004,239.544 209.539,239.288 209.539 C 239.014 209.538,238.910 210.281,238.910 212.246 M267.010 209.902 C 267.447 210.339,267.491 213.126,267.078 214.212 C 266.915 214.639,266.902 214.989,267.048 214.989 C 267.426 214.989,267.979 213.263,267.979 212.081 C 267.979 210.929,267.422 209.538,266.961 209.538 C 266.770 209.538,266.790 209.681,267.010 209.902 M284.286 210.977 C 284.220 213.143,284.352 214.502,284.659 214.822 C 284.827 214.996,284.936 214.011,284.936 212.324 C 284.936 209.460,284.368 208.284,284.286 210.977 M291.058 210.068 C 290.409 211.648,291.031 214.989,291.974 214.989 C 292.153 214.989,292.134 214.816,291.927 214.567 C 291.287 213.795,291.155 211.158,291.715 210.305 C 292.160 209.625,292.164 209.538,291.746 209.538 C 291.487 209.538,291.178 209.777,291.058 210.068 M301.195 209.745 C 301.106 209.888,301.490 210.927,302.048 212.054 C 302.605 213.182,303.120 214.269,303.192 214.471 C 303.368 214.960,303.583 214.706,303.815 213.736 C 303.966 213.106,303.899 212.946,303.497 212.979 C 303.147 213.007,302.809 212.545,302.420 211.506 C 301.802 209.857,301.444 209.342,301.195 209.745 M305.018 210.068 C 304.915 210.360,304.648 211.075,304.424 211.658 L 304.017 212.718 304.756 211.824 L 305.494 210.931 305.603 212.884 C 305.701 214.643,305.718 214.574,305.771 212.188 C 305.826 209.679,305.489 208.731,305.018 210.068 M186.901 210.092 C 186.692 210.225,187.373 210.284,188.415 210.222 C 191.162 210.058,191.511 209.916,189.251 209.881 C 188.168 209.864,187.111 209.959,186.901 210.092 M254.656 210.435 C 254.656 210.984,255.835 212.396,256.085 212.146 C 256.264 211.968,255.173 209.841,254.902 209.841 C 254.767 209.841,254.656 210.108,254.656 210.435 M145.950 211.846 C 145.950 212.076,145.678 212.263,145.344 212.263 C 144.755 212.263,144.488 211.404,144.938 210.954 C 145.211 210.681,145.950 211.333,145.950 211.846 M281.624 212.248 C 281.611 212.965,281.703 213.195,281.917 212.981 C 282.123 212.774,282.130 212.421,281.936 211.936 C 281.661 211.248,281.642 211.267,281.624 212.248 M257.264 212.434 C 257.164 212.694,256.930 212.814,256.745 212.699 C 256.318 212.435,256.685 213.764,257.186 214.296 C 257.449 214.576,257.539 214.339,257.561 213.312 C 257.593 211.850,257.544 211.705,257.264 212.434 M221.958 213.651 C 221.960 213.970,222.101 214.436,222.270 214.686 C 222.494 215.018,222.522 214.895,222.374 214.232 C 222.125 213.118,221.952 212.877,221.958 213.651 " stroke="none" fill="#37373c" fill-rule="evenodd"></path><path id="path2" d="M106.103 119.422 C 105.192 119.846,104.138 120.667,103.529 121.427 C 101.372 124.119,101.176 124.238,99.319 123.980 C 95.712 123.478,95.824 123.413,88.502 130.250 C 81.296 136.978,80.221 138.589,80.720 141.911 C 80.995 143.746,81.919 143.975,83.671 142.641 C 85.336 141.372,88.474 139.886,92.578 138.422 L 95.910 137.233 97.950 137.721 C 99.956 138.201,100.042 138.196,103.212 137.400 C 104.984 136.955,107.152 136.450,108.028 136.277 C 116.638 134.578,118.361 124.905,111.007 119.557 C 109.536 118.487,108.190 118.450,106.103 119.422 M85.148 151.764 C 84.892 152.019,84.784 153.724,84.784 157.497 C 84.784 164.865,85.064 164.421,80.423 164.421 C 75.597 164.421,75.700 164.511,75.700 160.311 L 75.700 157.154 69.114 157.158 C 65.492 157.161,62.367 157.265,62.170 157.391 C 61.973 157.516,60.079 161.022,57.962 165.183 C 55.844 169.344,52.873 174.996,51.360 177.744 C 47.223 185.258,45.357 189.288,45.808 189.739 C 46.078 190.010,93.471 190.301,94.859 190.041 C 96.078 189.812,96.107 189.769,99.847 182.589 C 100.932 180.507,103.047 176.488,104.547 173.656 C 106.048 170.825,108.290 166.567,109.530 164.194 C 112.185 159.113,111.911 159.230,113.791 162.377 C 115.562 165.341,118.934 171.723,125.084 183.753 C 126.476 186.476,127.958 189.065,128.377 189.507 C 130.214 191.442,129.306 188.895,125.561 181.609 C 115.066 161.188,113.209 157.845,112.133 157.436 C 111.725 157.281,106.758 157.154,101.096 157.154 C 88.894 157.154,89.629 157.346,89.629 154.147 C 89.629 152.257,89.531 151.730,89.150 151.584 C 88.310 151.262,85.524 151.387,85.148 151.764 " stroke="none" fill="#f8b10d" fill-rule="evenodd"></path><path id="path3" d="M292.691 88.666 C 292.607 88.802,292.939 88.855,293.430 88.783 C 293.921 88.711,294.322 88.599,294.322 88.535 C 294.322 88.304,292.841 88.423,292.691 88.666 M295.912 88.627 C 296.204 88.703,296.681 88.703,296.972 88.627 C 297.263 88.550,297.025 88.488,296.442 88.488 C 295.859 88.488,295.621 88.550,295.912 88.627 M298.452 89.303 C 298.975 89.621,299.476 90.064,299.564 90.286 C 299.666 90.542,299.734 90.559,299.749 90.332 C 299.776 89.925,298.348 88.720,297.840 88.722 C 297.654 88.722,297.930 88.984,298.452 89.303 M291.299 91.774 C 291.302 92.176,291.438 92.710,291.601 92.960 C 291.811 93.279,291.842 93.100,291.705 92.354 C 291.465 91.048,291.293 90.802,291.299 91.774 M297.671 95.912 C 297.116 96.703,296.920 97.121,297.234 96.841 C 297.782 96.351,299.015 94.474,298.789 94.474 C 298.728 94.474,298.225 95.121,297.671 95.912 M295.068 99.092 L 293.565 100.681 295.155 99.179 C 296.632 97.782,296.884 97.502,296.658 97.502 C 296.610 97.502,295.895 98.217,295.068 99.092 M105.540 119.235 C 104.706 119.694,103.441 120.801,102.692 121.726 C 101.077 123.722,100.592 123.946,98.838 123.504 C 96.075 122.809,95.393 123.224,88.091 130.050 C 81.408 136.298,80.444 137.607,80.291 140.650 C 80.106 144.300,81.465 144.974,84.436 142.706 C 86.232 141.334,87.256 140.844,91.875 139.144 L 95.787 137.703 97.975 138.184 C 99.858 138.598,100.369 138.609,101.634 138.260 C 106.036 137.046,106.757 136.866,107.223 136.866 C 108.733 136.866,111.873 135.539,113.152 134.360 C 119.857 128.179,113.227 115.004,105.540 119.235 M111.007 119.557 C 118.361 124.905,116.638 134.578,108.028 136.277 C 107.152 136.450,104.984 136.955,103.212 137.400 C 100.042 138.196,99.956 138.201,97.950 137.721 L 95.910 137.233 92.578 138.422 C 88.474 139.886,85.336 141.372,83.671 142.641 C 81.919 143.975,80.995 143.746,80.720 141.911 C 80.221 138.589,81.296 136.978,88.502 130.250 C 95.824 123.413,95.712 123.478,99.319 123.980 C 101.176 124.238,101.372 124.119,103.529 121.427 C 105.591 118.854,108.902 118.026,111.007 119.557 M344.334 139.186 L 342.619 140.901 344.436 139.280 C 345.435 138.388,346.310 137.617,346.379 137.565 C 346.448 137.514,346.402 137.472,346.277 137.472 C 346.151 137.472,345.277 138.243,344.334 139.186 M347.040 137.547 C 347.112 137.589,347.782 138.168,348.528 138.834 L 349.886 140.045 348.689 138.759 C 348.031 138.051,347.361 137.472,347.201 137.472 C 347.040 137.472,346.968 137.506,347.040 137.547 M163.948 138.759 L 163.058 139.743 163.983 138.910 C 165.265 137.756,167.716 137.711,168.825 138.820 C 169.234 139.229,169.569 139.444,169.569 139.297 C 169.569 137.628,165.336 137.223,163.948 138.759 M340.490 142.998 L 338.683 144.890 340.575 143.083 C 342.333 141.404,342.606 141.105,342.383 141.105 C 342.336 141.105,341.484 141.957,340.490 142.998 M348.797 143.301 C 347.522 144.839,346.907 145.884,348.040 144.587 C 349.042 143.441,350.113 142.014,349.971 142.014 C 349.912 142.014,349.383 142.593,348.797 143.301 M168.406 143.692 C 167.899 144.805,167.996 145.043,168.545 144.031 C 168.801 143.558,168.954 143.115,168.884 143.045 C 168.815 142.976,168.600 143.267,168.406 143.692 M314.733 143.603 C 314.157 144.284,314.157 144.284,314.785 143.755 C 315.682 143.000,315.965 143.073,317.569 144.481 L 319.001 145.737 317.580 144.329 C 315.976 142.741,315.554 142.633,314.733 143.603 M345.030 147.540 L 343.528 149.129 345.117 147.627 C 345.992 146.800,346.707 146.085,346.707 146.037 C 346.707 145.811,346.427 146.063,345.030 147.540 M336.526 147.540 C 335.632 148.560,335.109 149.281,335.264 149.281 C 335.340 149.281,335.840 148.736,336.375 148.070 C 337.415 146.776,337.520 146.405,336.526 147.540 M158.502 148.401 C 158.235 148.916,158.071 149.391,158.137 149.457 C 158.203 149.522,158.483 149.101,158.760 148.520 C 159.383 147.214,159.167 147.114,158.502 148.401 M342.632 149.872 C 341.916 150.663,342.670 150.865,345.802 150.718 L 348.070 150.612 345.420 150.552 C 342.795 150.493,342.431 150.348,343.134 149.644 C 343.334 149.444,343.423 149.281,343.332 149.281 C 343.242 149.281,342.926 149.547,342.632 149.872 M334.603 150.028 C 334.332 150.355,333.382 150.498,331.008 150.569 L 327.782 150.666 331.116 150.731 C 334.160 150.789,334.482 150.742,334.828 150.189 C 335.269 149.482,335.136 149.386,334.603 150.028 M157.203 151.262 C 156.696 152.376,156.792 152.613,157.341 151.601 C 157.597 151.128,157.750 150.685,157.681 150.615 C 157.612 150.546,157.396 150.837,157.203 151.262 M324.985 151.012 C 325.446 151.082,326.127 151.080,326.499 151.008 C 326.872 150.936,326.495 150.879,325.662 150.881 C 324.830 150.884,324.525 150.943,324.985 151.012 M351.022 151.004 C 351.313 151.080,351.790 151.080,352.082 151.004 C 352.373 150.927,352.135 150.865,351.552 150.865 C 350.969 150.865,350.731 150.927,351.022 151.004 M84.614 151.492 C 84.451 151.916,84.285 155.896,84.216 161.014 L 84.179 163.815 80.242 163.815 L 76.306 163.815 76.306 160.502 C 76.306 158.180,76.193 157.119,75.927 156.953 C 75.128 156.454,61.957 156.844,61.547 157.378 C 61.340 157.648,59.445 161.284,57.335 165.459 C 55.225 169.635,52.405 175.026,51.070 177.441 C 47.423 184.035,45.117 188.770,45.117 189.664 C 45.117 190.415,94.775 190.933,95.940 190.195 C 96.424 189.888,97.833 187.484,99.953 183.346 C 102.383 178.603,111.170 161.929,111.670 161.113 C 112.379 159.954,113.441 161.811,124.616 183.754 C 127.821 190.046,129.447 191.998,130.090 190.324 C 130.225 189.972,124.105 177.237,123.244 176.079 C 123.121 175.912,121.927 173.664,120.591 171.083 C 116.035 162.275,113.535 157.884,112.704 157.229 C 112.362 156.960,110.562 156.840,106.452 156.814 C 103.278 156.794,98.297 156.691,95.382 156.587 L 90.083 156.397 89.932 153.823 L 89.780 151.249 87.278 151.161 C 85.365 151.094,84.737 151.172,84.614 151.492 M355.090 151.315 C 356.430 151.383,357.313 151.567,357.390 151.792 C 357.459 151.993,357.500 151.953,357.482 151.703 C 357.457 151.345,356.971 151.244,355.182 151.226 L 352.914 151.203 355.090 151.315 M89.150 151.584 C 89.531 151.730,89.629 152.257,89.629 154.147 C 89.629 157.346,88.894 157.154,101.096 157.154 C 106.758 157.154,111.725 157.281,112.133 157.436 C 113.209 157.845,115.066 161.188,125.561 181.609 C 129.306 188.895,130.214 191.442,128.377 189.507 C 127.958 189.065,126.476 186.476,125.084 183.753 C 118.934 171.723,115.562 165.341,113.791 162.377 C 111.911 159.230,112.185 159.113,109.530 164.194 C 108.290 166.567,106.048 170.825,104.547 173.656 C 103.047 176.488,100.932 180.507,99.847 182.589 C 96.107 189.769,96.078 189.812,94.859 190.041 C 93.471 190.301,46.078 190.010,45.808 189.739 C 45.357 189.288,47.223 185.258,51.360 177.744 C 52.873 174.996,55.844 169.344,57.962 165.183 C 60.079 161.022,61.973 157.516,62.170 157.391 C 62.367 157.265,65.492 157.161,69.114 157.158 L 75.700 157.154 75.700 160.311 C 75.700 164.511,75.597 164.421,80.423 164.421 C 85.064 164.421,84.784 164.865,84.784 157.497 C 84.784 153.724,84.892 152.019,85.148 151.764 C 85.524 151.387,88.310 151.262,89.150 151.584 M279.413 153.129 C 279.790 153.201,280.335 153.198,280.624 153.123 C 280.914 153.047,280.606 152.987,279.939 152.991 C 279.273 152.994,279.036 153.056,279.413 153.129 M199.167 154.037 C 199.542 154.109,200.155 154.109,200.530 154.037 C 200.905 153.964,200.598 153.905,199.849 153.905 C 199.099 153.905,198.793 153.964,199.167 154.037 M202.271 154.512 C 202.271 154.570,202.714 154.942,203.255 155.338 C 203.864 155.784,204.076 155.857,203.810 155.530 C 203.407 155.033,202.271 154.282,202.271 154.512 M272.521 154.883 C 272.104 155.121,271.900 155.315,272.067 155.315 C 272.233 155.315,272.710 155.121,273.126 154.883 C 273.543 154.645,273.747 154.450,273.581 154.450 C 273.414 154.450,272.937 154.645,272.521 154.883 M310.423 155.028 C 310.868 155.162,311.413 155.365,311.634 155.478 C 311.855 155.592,311.772 155.470,311.449 155.208 C 311.125 154.946,310.580 154.743,310.237 154.757 C 309.737 154.778,309.774 154.832,310.423 155.028 M347.994 154.948 C 348.452 155.018,349.201 155.018,349.659 154.948 C 350.117 154.879,349.743 154.822,348.827 154.822 C 347.911 154.822,347.536 154.879,347.994 154.948 M342.991 155.253 C 343.529 155.319,344.482 155.321,345.111 155.255 C 345.739 155.189,345.299 155.135,344.133 155.133 C 342.967 155.132,342.453 155.186,342.991 155.253 M339.516 155.546 C 339.807 155.622,340.284 155.622,340.575 155.546 C 340.867 155.469,340.628 155.407,340.045 155.407 C 339.463 155.407,339.224 155.469,339.516 155.546 M312.216 155.715 C 312.288 155.757,312.889 156.268,313.554 156.851 L 314.762 157.911 313.718 156.775 C 313.144 156.151,312.542 155.640,312.381 155.640 C 312.219 155.640,312.145 155.674,312.216 155.715 M338.170 156.170 C 337.637 156.791,337.237 157.456,337.397 157.456 C 337.459 157.456,337.811 157.048,338.181 156.548 C 338.911 155.561,338.904 155.315,338.170 156.170 M328.009 156.159 C 328.467 156.229,329.217 156.229,329.674 156.159 C 330.132 156.090,329.758 156.033,328.842 156.033 C 327.926 156.033,327.551 156.090,328.009 156.159 M330.749 156.134 C 330.854 156.239,330.801 156.614,330.631 156.966 C 330.331 157.590,330.336 157.591,330.793 157.020 C 331.354 156.321,331.395 155.942,330.911 155.942 C 330.717 155.942,330.644 156.029,330.749 156.134 M204.820 157.609 C 205.159 158.338,205.481 158.890,205.536 158.834 C 205.692 158.678,204.790 156.644,204.480 156.452 C 204.329 156.359,204.482 156.879,204.820 157.609 M307.716 157.684 C 306.932 158.816,306.677 159.273,306.831 159.273 C 306.902 159.273,307.320 158.728,307.761 158.062 C 308.657 156.708,308.618 156.381,307.716 157.684 M266.557 158.236 L 265.708 159.015 266.692 158.330 C 267.233 157.953,267.676 157.603,267.676 157.551 C 267.676 157.312,267.341 157.517,266.557 158.236 M286.067 158.442 L 285.533 159.425 286.142 158.710 C 286.662 158.102,286.939 157.452,286.677 157.458 C 286.635 157.459,286.361 157.902,286.067 158.442 M182.868 158.895 C 183.012 159.940,183.034 159.961,183.133 159.161 C 183.193 158.682,183.122 158.172,182.976 158.025 C 182.824 157.873,182.778 158.244,182.868 158.895 M207.336 159.189 C 207.874 159.256,208.828 159.257,209.456 159.191 C 210.084 159.126,209.644 159.071,208.478 159.070 C 207.313 159.068,206.799 159.122,207.336 159.189 M264.824 159.549 C 264.495 159.913,264.348 160.448,264.429 160.988 L 264.557 161.847 264.603 160.963 C 264.628 160.476,264.874 159.829,265.149 159.524 C 265.425 159.220,265.582 158.970,265.499 158.970 C 265.416 158.970,265.112 159.231,264.824 159.549 M245.496 160.052 C 245.038 160.301,244.663 160.572,244.663 160.656 C 244.663 160.740,244.970 160.644,245.344 160.443 C 245.719 160.241,246.435 159.978,246.934 159.857 C 247.755 159.659,247.770 159.636,247.086 159.619 C 246.669 159.609,245.954 159.804,245.496 160.052 M283.714 161.317 L 282.059 163.058 283.800 161.403 C 285.418 159.866,285.680 159.576,285.455 159.576 C 285.408 159.576,284.624 160.360,283.714 161.317 M217.339 160.093 C 217.716 160.165,218.261 160.163,218.550 160.087 C 218.840 160.011,218.531 159.952,217.865 159.955 C 217.199 159.959,216.962 160.021,217.339 160.093 M191.917 161.014 C 191.384 161.636,190.984 162.301,191.144 162.301 C 191.206 162.301,191.559 161.893,191.928 161.393 C 192.658 160.406,192.651 160.160,191.917 161.014 M249.962 160.982 C 251.504 162.350,252.072 162.749,251.477 162.046 C 251.147 161.656,250.603 161.196,250.268 161.025 C 249.933 160.853,249.796 160.834,249.962 160.982 M198.262 161.607 C 198.639 161.679,199.184 161.677,199.474 161.601 C 199.763 161.525,199.455 161.466,198.789 161.469 C 198.123 161.473,197.886 161.535,198.262 161.607 M304.635 162.491 C 304.279 163.095,304.037 163.638,304.097 163.699 C 304.158 163.759,304.513 163.265,304.886 162.601 C 305.734 161.092,305.517 160.997,304.635 162.491 M239.510 165.254 L 236.336 168.509 239.591 165.335 C 242.615 162.387,242.984 161.998,242.765 161.998 C 242.721 161.998,241.256 163.463,239.510 165.254 M210.080 162.526 C 211.127 162.585,212.763 162.585,213.714 162.525 C 214.665 162.465,213.808 162.416,211.809 162.417 C 209.811 162.417,209.033 162.466,210.080 162.526 M217.335 162.515 C 217.710 162.587,218.323 162.587,218.698 162.515 C 219.073 162.443,218.766 162.384,218.017 162.384 C 217.267 162.384,216.961 162.443,217.335 162.515 M334.195 163.375 C 333.484 164.867,333.584 165.121,334.327 163.711 C 334.665 163.071,334.888 162.493,334.823 162.428 C 334.757 162.362,334.475 162.789,334.195 163.375 M205.963 167.979 C 206.022 173.387,206.133 172.749,206.280 166.161 C 206.323 164.204,206.257 162.603,206.132 162.603 C 206.007 162.604,205.931 165.023,205.963 167.979 M151.722 164.591 C 151.367 165.541,151.129 166.370,151.194 166.435 C 151.258 166.499,151.598 165.772,151.949 164.818 C 152.300 163.865,152.538 163.035,152.478 162.975 C 152.417 162.915,152.077 163.642,151.722 164.591 M158.551 164.304 C 158.283 165.091,158.116 165.787,158.180 165.851 C 158.244 165.915,158.516 165.324,158.784 164.537 C 159.052 163.751,159.219 163.055,159.155 162.991 C 159.091 162.926,158.819 163.518,158.551 164.304 M173.734 163.967 C 173.813 164.383,173.915 164.724,173.959 164.724 C 174.004 164.724,174.105 164.383,174.185 163.967 C 174.275 163.493,174.191 163.210,173.959 163.210 C 173.727 163.210,173.643 163.493,173.734 163.967 M200.524 164.118 C 200.524 164.701,200.587 164.939,200.663 164.648 C 200.739 164.357,200.739 163.880,200.663 163.588 C 200.587 163.297,200.524 163.535,200.524 164.118 M280.377 164.345 L 279.334 165.481 280.469 164.437 C 281.094 163.863,281.605 163.352,281.605 163.302 C 281.605 163.070,281.349 163.288,280.377 164.345 M171.991 164.466 C 171.408 164.978,171.205 165.257,171.540 165.088 C 172.093 164.808,173.465 163.496,173.173 163.525 C 173.106 163.532,172.574 163.955,171.991 164.466 M267.761 164.338 L 268.906 164.875 268.215 165.624 L 267.525 166.374 268.357 165.647 C 269.378 164.757,269.395 164.538,268.461 164.304 C 268.060 164.203,267.481 164.049,267.174 163.961 C 266.867 163.873,267.131 164.043,267.761 164.338 M161.230 165.708 L 159.727 167.298 161.317 165.795 C 162.192 164.968,162.907 164.253,162.907 164.205 C 162.907 163.979,162.626 164.231,161.230 165.708 M311.395 164.497 C 310.352 166.265,310.284 166.416,310.815 165.783 C 311.430 165.051,311.961 164.118,311.762 164.118 C 311.683 164.118,311.517 164.288,311.395 164.497 M188.494 166.540 C 188.235 167.040,188.092 167.449,188.175 167.449 C 188.258 167.449,188.538 167.040,188.796 166.540 C 189.055 166.041,189.198 165.632,189.115 165.632 C 189.031 165.632,188.752 166.041,188.494 166.540 M332.362 167.442 C 331.679 169.150,331.784 169.404,332.503 167.783 C 332.828 167.051,333.040 166.398,332.974 166.332 C 332.908 166.266,332.633 166.766,332.362 167.442 M194.907 167.614 C 194.195 169.106,194.295 169.360,195.039 167.950 C 195.377 167.310,195.600 166.733,195.534 166.667 C 195.469 166.602,195.186 167.028,194.907 167.614 M263.885 169.644 L 260.863 172.748 263.967 169.726 C 266.849 166.918,267.208 166.540,266.989 166.540 C 266.944 166.540,265.548 167.937,263.885 169.644 M326.150 167.785 C 325.964 168.320,325.864 168.811,325.929 168.876 C 325.994 168.941,326.199 168.556,326.386 168.021 C 326.572 167.486,326.672 166.995,326.607 166.930 C 326.542 166.865,326.337 167.250,326.150 167.785 M179.610 167.916 C 179.103 169.030,179.200 169.267,179.748 168.255 C 180.004 167.782,180.157 167.339,180.088 167.269 C 180.019 167.200,179.804 167.491,179.610 167.916 M158.358 168.819 C 157.789 169.405,157.149 169.818,156.936 169.736 C 156.723 169.655,156.548 169.719,156.548 169.881 C 156.548 170.511,157.387 170.119,158.516 168.963 C 159.167 168.297,159.630 167.752,159.546 167.752 C 159.461 167.752,158.927 168.232,158.358 168.819 M166.673 169.039 L 165.783 170.023 166.768 169.133 C 167.309 168.644,167.752 168.201,167.752 168.149 C 167.752 167.915,167.502 168.121,166.673 169.039 M301.190 169.128 C 300.478 170.620,300.579 170.874,301.322 169.464 C 301.660 168.824,301.883 168.247,301.817 168.181 C 301.752 168.116,301.469 168.542,301.190 169.128 M269.914 173.612 C 267.101 176.336,263.859 179.640,262.710 180.955 C 261.413 182.439,261.906 182.001,264.010 179.800 C 265.875 177.850,269.200 174.547,271.399 172.459 C 273.598 170.372,275.315 168.663,275.213 168.662 C 275.112 168.661,272.727 170.889,269.914 173.612 M308.100 170.174 C 307.678 171.007,307.401 171.688,307.484 171.688 C 307.567 171.688,307.981 171.007,308.403 170.174 C 308.825 169.341,309.102 168.660,309.019 168.660 C 308.935 168.660,308.522 169.341,308.100 170.174 M232.985 172.218 C 231.341 174.008,230.314 175.201,230.702 174.868 C 231.581 174.114,236.301 168.963,236.113 168.963 C 236.037 168.963,234.630 170.428,232.985 172.218 M178.399 170.641 C 177.892 171.755,177.988 171.992,178.537 170.980 C 178.793 170.507,178.946 170.064,178.877 169.995 C 178.808 169.925,178.593 170.216,178.399 170.641 M218.304 171.112 C 217.956 171.794,217.724 172.404,217.787 172.468 C 217.850 172.531,218.199 171.973,218.561 171.227 C 219.386 169.529,219.163 169.428,218.304 171.112 M163.952 172.067 L 162.755 173.354 164.042 172.157 C 164.750 171.498,165.329 170.919,165.329 170.870 C 165.329 170.641,165.066 170.870,163.952 172.067 M224.754 173.732 C 224.386 174.668,224.132 175.482,224.190 175.540 C 224.249 175.599,224.604 174.887,224.981 173.959 C 225.358 173.031,225.611 172.218,225.545 172.151 C 225.478 172.084,225.122 172.796,224.754 173.732 M238.732 175.397 C 237.561 176.605,236.406 177.865,236.167 178.198 C 235.927 178.531,236.815 177.666,238.139 176.275 C 240.178 174.132,240.579 173.831,240.766 174.306 C 240.944 174.757,240.991 174.704,241.008 174.035 C 241.036 172.958,241.189 172.866,238.732 175.397 M259.329 174.489 C 257.543 176.396,256.652 177.441,256.812 177.441 C 256.890 177.441,257.809 176.488,258.852 175.322 C 260.929 173.002,261.255 172.433,259.329 174.489 M161.828 174.617 C 161.362 175.228,161.135 175.633,161.324 175.516 C 161.711 175.276,163.022 173.505,162.812 173.505 C 162.737 173.505,162.294 174.005,161.828 174.617 M198.368 174.447 C 198.182 174.982,198.082 175.473,198.147 175.538 C 198.212 175.602,198.417 175.218,198.604 174.682 C 198.790 174.147,198.890 173.657,198.825 173.592 C 198.760 173.527,198.555 173.912,198.368 174.447 M305.732 174.882 C 305.020 176.373,305.121 176.627,305.864 175.217 C 306.202 174.577,306.425 174.000,306.359 173.934 C 306.294 173.869,306.011 174.295,305.732 174.882 M191.586 175.689 C 191.311 176.552,191.135 177.307,191.197 177.369 C 191.258 177.430,191.541 176.782,191.824 175.927 C 192.108 175.073,192.283 174.317,192.214 174.248 C 192.145 174.178,191.862 174.827,191.586 175.689 M176.279 175.486 C 175.772 176.600,175.869 176.837,176.417 175.825 C 176.674 175.352,176.826 174.909,176.757 174.839 C 176.688 174.770,176.473 175.061,176.279 175.486 M216.694 175.652 C 216.589 176.178,216.520 177.103,216.541 177.706 C 216.567 178.448,216.661 178.171,216.832 176.849 C 217.100 174.779,217.015 174.045,216.694 175.652 M185.057 177.139 C 185.055 178.221,185.163 179.379,185.296 179.712 C 185.433 180.056,185.479 179.335,185.402 178.047 C 185.225 175.089,185.060 174.655,185.057 177.139 M228.598 176.457 L 227.555 177.593 228.690 176.549 C 229.315 175.975,229.826 175.464,229.826 175.414 C 229.826 175.183,229.570 175.400,228.598 176.457 M240.294 176.100 C 240.183 176.544,240.150 176.966,240.221 177.037 C 240.293 177.108,240.442 176.804,240.554 176.360 C 240.665 175.916,240.698 175.495,240.626 175.423 C 240.555 175.352,240.406 175.657,240.294 176.100 M196.658 177.820 C 196.191 178.528,196.003 178.947,196.239 178.752 C 196.694 178.376,197.853 176.533,197.635 176.533 C 197.564 176.533,197.125 177.112,196.658 177.820 M159.646 177.668 C 158.862 178.801,158.608 179.258,158.761 179.258 C 158.832 179.258,159.251 178.713,159.692 178.047 C 160.587 176.693,160.548 176.366,159.646 177.668 M175.371 177.606 C 174.864 178.719,174.960 178.957,175.509 177.944 C 175.765 177.472,175.918 177.028,175.849 176.959 C 175.780 176.890,175.565 177.181,175.371 177.606 M329.015 177.614 C 328.903 178.058,328.871 178.480,328.942 178.551 C 329.013 178.622,329.163 178.318,329.274 177.874 C 329.386 177.430,329.418 177.009,329.347 176.937 C 329.276 176.866,329.126 177.171,329.015 177.614 M298.356 179.258 C 298.356 180.341,298.411 180.783,298.478 180.242 C 298.545 179.701,298.545 178.815,298.478 178.274 C 298.411 177.733,298.356 178.176,298.356 179.258 M224.262 179.630 C 223.266 180.169,222.992 180.207,222.445 179.879 C 221.849 179.522,221.837 179.531,222.284 179.999 C 222.850 180.592,223.847 180.427,224.981 179.552 C 225.945 178.809,225.739 178.831,224.262 179.630 M272.616 180.091 C 272.298 180.382,272.188 180.524,272.371 180.406 C 272.555 180.288,273.038 180.058,273.446 179.895 C 273.914 179.708,274.004 179.592,273.690 179.580 C 273.417 179.570,272.934 179.799,272.616 180.091 M232.986 181.151 L 232.097 182.135 233.081 181.245 C 233.622 180.756,234.065 180.313,234.065 180.261 C 234.065 180.027,233.815 180.233,232.986 181.151 M193.036 181.250 C 192.369 181.648,191.961 181.975,192.127 181.977 C 192.491 181.982,194.398 180.846,194.398 180.625 C 194.398 180.427,194.461 180.399,193.036 181.250 M173.338 182.265 C 173.180 182.419,172.574 182.602,171.991 182.670 L 170.931 182.795 172.030 182.843 C 172.688 182.872,173.279 182.710,173.505 182.438 C 173.918 181.940,173.798 181.815,173.338 182.265 M200.757 183.346 C 200.021 184.095,199.488 184.709,199.571 184.709 C 199.654 184.709,200.324 184.095,201.060 183.346 C 201.795 182.597,202.329 181.983,202.246 181.983 C 202.162 181.983,201.493 182.597,200.757 183.346 M218.925 183.649 C 219.490 184.232,220.020 184.709,220.104 184.709 C 220.187 184.709,219.793 184.232,219.228 183.649 C 218.663 183.066,218.133 182.589,218.049 182.589 C 217.966 182.589,218.360 183.066,218.925 183.649 M187.289 183.466 C 188.021 184.353,190.126 185.920,190.583 185.919 C 190.766 185.918,190.439 185.632,189.856 185.283 C 189.273 184.934,188.322 184.219,187.743 183.694 C 187.091 183.104,186.918 183.017,187.289 183.466 M228.009 184.406 C 227.426 184.725,227.058 184.992,227.191 184.999 C 227.512 185.015,229.220 184.127,229.220 183.944 C 229.220 183.746,229.203 183.752,228.009 184.406 M258.806 185.693 C 257.392 187.702,256.778 188.710,257.284 188.191 C 257.809 187.651,260.444 183.800,260.288 183.800 C 260.205 183.800,259.538 184.652,258.806 185.693 M272.696 184.332 C 272.595 184.650,272.037 185.716,271.456 186.702 C 270.875 187.687,270.687 188.154,271.038 187.739 C 271.815 186.821,273.223 184.098,273.023 183.899 C 272.944 183.819,272.796 184.014,272.696 184.332 M251.462 185.039 C 251.195 185.555,251.031 186.030,251.097 186.095 C 251.162 186.161,251.443 185.740,251.720 185.159 C 252.343 183.853,252.127 183.753,251.462 185.039 M154.761 185.484 C 154.411 186.077,154.262 186.477,154.430 186.373 C 154.758 186.170,155.741 184.406,155.526 184.406 C 155.455 184.406,155.110 184.891,154.761 185.484 M300.077 185.115 C 300.493 185.588,301.105 186.116,301.438 186.287 C 302.076 186.616,302.057 186.596,300.380 185.160 L 299.321 184.254 300.077 185.115 M303.186 185.617 C 303.186 186.366,303.245 186.673,303.317 186.298 C 303.390 185.924,303.390 185.310,303.317 184.936 C 303.245 184.561,303.186 184.868,303.186 185.617 M223.240 185.826 C 223.531 185.902,224.008 185.902,224.300 185.826 C 224.591 185.750,224.353 185.687,223.770 185.687 C 223.187 185.687,222.949 185.750,223.240 185.826 M238.395 187.737 C 238.395 188.653,238.452 189.027,238.521 188.569 C 238.591 188.111,238.591 187.362,238.521 186.904 C 238.452 186.446,238.395 186.821,238.395 187.737 M321.954 187.282 C 321.957 187.949,322.019 188.185,322.092 187.809 C 322.164 187.432,322.161 186.887,322.085 186.598 C 322.010 186.308,321.950 186.616,321.954 187.282 M262.907 187.469 C 261.875 188.130,261.541 188.573,262.453 188.072 C 263.147 187.690,264.236 186.849,264.042 186.843 C 263.959 186.840,263.448 187.122,262.907 187.469 M268.756 190.390 C 267.862 191.429,267.661 191.762,268.254 191.219 C 269.152 190.396,270.582 188.639,270.346 188.649 C 270.293 188.651,269.578 189.434,268.756 190.390 M143.559 189.915 C 143.541 190.382,143.819 191.036,144.209 191.444 C 144.584 191.836,144.704 191.917,144.476 191.625 C 144.248 191.332,143.956 190.644,143.826 190.096 C 143.606 189.170,143.587 189.157,143.559 189.915 M256.167 189.861 C 255.797 190.552,256.313 190.926,257.287 190.674 C 257.641 190.582,257.537 190.520,256.992 190.497 C 256.245 190.466,256.186 190.392,256.472 189.856 C 256.651 189.523,256.728 189.251,256.645 189.251 C 256.562 189.251,256.347 189.525,256.167 189.861 M258.895 189.856 C 258.312 190.175,257.944 190.442,258.077 190.449 C 258.398 190.466,260.106 189.578,260.106 189.394 C 260.106 189.196,260.088 189.203,258.895 189.856 M323.467 190.368 C 323.759 190.444,324.235 190.444,324.527 190.368 C 324.818 190.292,324.580 190.229,323.997 190.229 C 323.414 190.229,323.176 190.292,323.467 190.368 M149.886 192.127 C 149.151 192.877,148.617 193.490,148.701 193.490 C 148.784 193.490,149.454 192.877,150.189 192.127 C 150.925 191.378,151.458 190.765,151.375 190.765 C 151.292 190.765,150.622 191.378,149.886 192.127 M239.174 192.051 C 239.450 192.404,239.958 192.565,240.688 192.533 L 241.787 192.484 240.728 192.357 C 240.146 192.287,239.464 192.070,239.214 191.875 C 238.817 191.567,238.812 191.590,239.174 192.051 M252.233 193.282 C 252.233 193.334,252.676 193.777,253.217 194.266 L 254.201 195.155 253.312 194.171 C 252.483 193.254,252.233 193.048,252.233 193.282 M261.317 195.367 C 260.901 195.546,259.606 195.798,258.441 195.928 L 256.321 196.165 258.441 196.091 C 259.606 196.050,261.037 195.800,261.620 195.535 C 262.793 195.002,262.521 194.851,261.317 195.367 M313.039 212.180 C 313.128 215.449,313.099 215.660,312.585 215.465 C 312.167 215.305,312.120 215.340,312.388 215.610 C 313.146 216.374,313.399 215.535,313.399 212.263 C 313.399 210.451,313.297 208.905,313.172 208.827 C 313.047 208.750,312.987 210.258,313.039 212.180 M160.009 209.334 C 159.924 209.555,159.900 211.019,159.955 212.589 L 160.056 215.443 160.119 212.339 C 160.175 209.580,160.242 209.235,160.725 209.235 C 161.179 209.235,161.265 209.493,161.254 210.817 C 161.243 212.179,161.325 212.408,161.847 212.465 C 162.314 212.516,162.331 212.496,161.923 212.375 C 161.205 212.164,161.152 209.841,161.865 209.841 C 162.125 209.841,162.260 209.716,162.166 209.564 C 162.072 209.412,162.166 209.218,162.375 209.134 C 162.584 209.049,162.172 208.970,161.459 208.957 C 160.644 208.941,160.106 209.081,160.009 209.334 M196.896 209.133 C 196.688 209.217,196.518 209.427,196.518 209.601 C 196.518 209.814,196.639 209.817,196.896 209.608 C 197.104 209.439,197.547 209.234,197.880 209.152 L 198.486 209.003 197.880 208.992 C 197.547 208.985,197.104 209.049,196.896 209.133 M213.838 209.296 C 213.428 209.706,213.353 210.638,213.712 210.860 C 213.842 210.941,213.945 210.642,213.939 210.197 C 213.930 209.516,214.058 209.388,214.739 209.397 C 215.184 209.403,215.483 209.300,215.402 209.170 C 215.180 208.811,214.248 208.886,213.838 209.296 M223.107 209.139 C 223.419 209.264,223.397 209.416,223.009 209.846 C 222.706 210.181,222.563 210.727,222.642 211.253 C 222.766 212.081,222.772 212.076,222.816 211.121 C 222.871 209.923,224.030 209.178,224.821 209.834 C 225.202 210.150,225.284 210.137,225.284 209.759 C 225.284 209.217,224.638 208.923,223.518 208.957 C 223.074 208.970,222.889 209.052,223.107 209.139 M284.118 210.447 C 284.118 211.363,284.175 211.737,284.244 211.279 C 284.314 210.821,284.314 210.072,284.244 209.614 C 284.175 209.156,284.118 209.531,284.118 210.447 M285.049 212.112 C 285.050 213.944,285.099 214.654,285.160 213.691 C 285.220 212.727,285.219 211.228,285.159 210.360 C 285.098 209.492,285.048 210.280,285.049 212.112 M293.918 209.235 C 294.279 209.381,294.717 209.747,294.893 210.049 C 295.069 210.351,295.217 210.449,295.222 210.266 C 295.234 209.806,294.214 208.929,293.693 208.952 C 293.456 208.962,293.558 209.090,293.918 209.235 M198.760 209.491 C 198.879 209.684,198.832 209.841,198.655 209.841 C 198.479 209.841,198.335 210.124,198.335 210.469 C 198.335 210.907,198.174 211.063,197.805 210.987 C 197.513 210.927,197.292 210.655,197.313 210.383 C 197.336 210.088,197.189 209.951,196.947 210.044 C 196.672 210.150,196.601 210.501,196.726 211.155 C 196.935 212.259,197.123 212.592,197.123 211.860 C 197.123 211.545,197.369 211.355,197.776 211.355 C 198.389 211.355,198.398 211.389,197.927 211.909 C 197.306 212.595,197.285 212.904,197.873 212.678 C 198.155 212.570,198.445 212.779,198.656 213.243 C 199.128 214.279,199.897 214.246,199.502 213.207 C 199.340 212.782,199.087 212.289,198.940 212.112 C 198.784 211.924,198.789 211.604,198.953 211.345 C 199.345 210.725,199.312 209.616,198.893 209.358 C 198.677 209.224,198.626 209.275,198.760 209.491 M221.839 209.701 C 221.735 209.972,221.671 210.898,221.696 211.758 L 221.743 213.323 221.944 211.355 C 222.159 209.249,222.138 208.922,221.839 209.701 M238.741 212.263 C 238.757 215.228,238.799 215.443,239.360 215.443 C 239.715 215.443,239.982 215.223,240.010 214.907 C 240.045 214.532,240.017 214.510,239.917 214.831 C 239.435 216.383,238.926 215.148,238.827 212.188 L 238.723 209.084 238.741 212.263 M241.877 209.599 C 242.077 209.799,242.241 210.230,242.241 210.558 C 242.241 210.885,242.325 211.069,242.428 210.965 C 242.727 210.667,242.266 209.235,241.872 209.235 C 241.600 209.235,241.601 209.323,241.877 209.599 M246.783 209.672 C 246.783 209.912,246.940 210.205,247.132 210.324 C 247.349 210.458,247.400 210.407,247.266 210.191 C 247.147 209.998,247.190 209.841,247.361 209.841 C 247.532 209.841,247.875 210.216,248.124 210.674 C 248.372 211.132,248.581 211.354,248.587 211.169 C 248.603 210.728,247.427 209.235,247.064 209.235 C 246.909 209.235,246.783 209.432,246.783 209.672 M254.477 209.652 C 254.389 209.882,254.368 210.733,254.431 211.545 L 254.546 213.020 254.601 211.247 C 254.646 209.781,254.737 209.505,255.125 209.654 C 255.395 209.757,255.517 209.706,255.410 209.535 C 255.145 209.105,254.663 209.166,254.477 209.652 M300.802 209.661 C 300.712 209.895,300.695 210.542,300.763 211.099 C 300.875 212.013,300.892 211.986,300.936 210.825 C 300.988 209.428,301.686 209.016,302.051 210.167 C 302.161 210.512,302.317 210.728,302.399 210.647 C 302.480 210.565,302.395 210.214,302.209 209.867 C 301.823 209.145,301.044 209.031,300.802 209.661 M306.078 212.181 C 306.168 214.872,306.137 215.056,305.624 214.860 C 305.203 214.700,305.155 214.734,305.424 215.005 C 306.144 215.730,306.435 214.941,306.435 212.263 C 306.435 210.784,306.332 209.510,306.207 209.433 C 306.083 209.355,306.024 210.592,306.078 212.181 M188.788 209.757 C 189.956 209.820,191.015 210.034,191.158 210.235 C 191.340 210.491,191.380 210.464,191.293 210.144 C 191.199 209.795,190.650 209.684,188.924 209.666 L 186.677 209.642 188.788 209.757 M281.134 209.928 C 281.041 210.170,281.016 211.101,281.077 211.997 L 281.190 213.626 281.246 211.734 C 281.307 209.675,281.813 209.142,281.965 210.977 C 282.039 211.866,282.190 212.118,282.665 212.142 C 283.090 212.163,283.118 212.135,282.758 212.047 C 282.418 211.965,282.213 211.555,282.152 210.830 C 282.056 209.703,281.432 209.150,281.134 209.928 M163.892 210.901 C 163.895 211.567,163.957 211.804,164.029 211.427 C 164.102 211.051,164.099 210.506,164.023 210.216 C 163.948 209.926,163.888 210.235,163.892 210.901 M215.378 211.204 C 215.380 212.036,215.439 212.341,215.509 211.881 C 215.578 211.420,215.576 210.739,215.505 210.367 C 215.433 209.994,215.376 210.371,215.378 211.204 M177.477 210.765 C 177.430 211.789,177.965 212.272,179.092 212.224 C 180.010 212.184,180.009 212.183,178.958 211.996 C 178.090 211.843,177.865 211.647,177.707 210.901 C 177.527 210.058,177.510 210.048,177.477 210.765 M178.369 210.485 C 178.339 211.244,179.194 211.844,179.649 211.385 C 179.936 211.096,179.901 211.060,179.487 211.217 C 179.109 211.361,178.878 211.216,178.674 210.705 C 178.489 210.244,178.381 210.166,178.369 210.485 M189.023 210.353 C 189.315 210.429,189.792 210.429,190.083 210.353 C 190.375 210.276,190.136 210.214,189.553 210.214 C 188.970 210.214,188.732 210.276,189.023 210.353 M214.326 211.204 C 214.394 211.787,214.503 212.263,214.568 212.263 C 214.633 212.263,214.686 211.787,214.686 211.204 C 214.686 210.621,214.577 210.144,214.444 210.144 C 214.311 210.144,214.258 210.621,214.326 211.204 M264.747 212.112 C 264.749 213.278,264.803 213.718,264.869 213.089 C 264.935 212.461,264.933 211.507,264.867 210.970 C 264.800 210.432,264.746 210.946,264.747 212.112 M225.381 212.263 C 225.381 213.346,225.436 213.789,225.503 213.248 C 225.570 212.706,225.570 211.821,225.503 211.279 C 225.436 210.738,225.381 211.181,225.381 212.263 M291.688 211.961 C 291.688 212.877,291.745 213.251,291.814 212.793 C 291.884 212.335,291.884 211.586,291.814 211.128 C 291.745 210.670,291.688 211.045,291.688 211.961 M241.380 211.267 C 241.199 211.605,241.137 211.967,241.242 212.072 C 241.347 212.177,241.146 212.263,240.795 212.263 C 240.444 212.263,240.078 212.391,239.982 212.547 C 239.765 212.898,241.624 212.396,242.025 211.995 C 242.195 211.825,242.187 211.509,242.006 211.184 C 241.728 210.688,241.686 210.694,241.380 211.267 M267.153 211.961 C 267.153 212.710,267.212 213.017,267.284 212.642 C 267.356 212.267,267.356 211.654,267.284 211.279 C 267.212 210.905,267.153 211.211,267.153 211.961 M294.474 212.112 C 294.474 213.069,294.550 213.295,294.751 212.937 C 294.999 212.493,295.049 212.502,295.232 213.023 C 295.355 213.373,295.441 213.007,295.450 212.101 C 295.458 211.157,295.382 210.818,295.246 211.190 C 295.051 211.719,294.998 211.730,294.751 211.287 C 294.550 210.929,294.474 211.155,294.474 212.112 M144.893 211.350 C 144.649 211.745,144.971 212.270,145.438 212.240 C 145.666 212.224,145.646 212.155,145.386 212.051 C 145.070 211.926,145.060 211.834,145.343 211.659 C 145.587 211.508,145.605 211.365,145.398 211.237 C 145.225 211.130,144.998 211.181,144.893 211.350 M226.571 212.112 C 226.575 212.778,226.637 213.015,226.709 212.638 C 226.782 212.262,226.779 211.717,226.703 211.427 C 226.627 211.138,226.568 211.446,226.571 212.112 M290.469 212.263 C 290.469 213.013,290.528 213.319,290.600 212.945 C 290.672 212.570,290.672 211.957,290.600 211.582 C 290.528 211.207,290.469 211.514,290.469 212.263 M247.761 212.566 C 247.761 213.149,247.824 213.388,247.900 213.096 C 247.976 212.805,247.976 212.328,247.900 212.036 C 247.824 211.745,247.761 211.983,247.761 212.566 M301.406 212.086 C 301.316 212.322,301.300 212.901,301.370 213.373 C 301.493 214.190,301.501 214.183,301.544 213.230 C 301.570 212.656,301.718 212.307,301.889 212.413 C 302.061 212.519,302.111 212.397,302.008 212.128 C 301.784 211.545,301.619 211.533,301.406 212.086 M304.526 212.547 C 304.243 213.025,304.013 213.532,304.013 213.673 C 304.014 213.814,304.294 213.471,304.635 212.911 C 304.977 212.351,305.207 211.844,305.148 211.784 C 305.089 211.725,304.809 212.068,304.526 212.547 M248.682 213.172 C 248.682 213.921,248.741 214.228,248.813 213.853 C 248.885 213.478,248.885 212.865,248.813 212.491 C 248.741 212.116,248.682 212.422,248.682 213.172 M255.271 212.357 C 255.265 212.658,255.391 212.825,255.550 212.727 C 255.708 212.628,256.043 212.927,256.294 213.390 C 256.546 213.853,256.756 214.069,256.763 213.870 C 256.770 213.671,256.439 213.126,256.028 212.659 C 255.414 211.961,255.279 211.907,255.271 212.357 M146.858 213.104 C 146.858 213.400,146.643 213.980,146.380 214.391 L 145.902 215.140 146.531 214.425 C 147.092 213.789,147.407 212.566,147.010 212.566 C 146.927 212.566,146.858 212.808,146.858 213.104 M186.435 212.757 C 186.035 213.157,186.222 214.308,186.752 214.710 C 187.203 215.051,187.226 215.047,186.904 214.686 C 186.262 213.967,186.412 213.279,187.079 213.882 C 187.717 214.459,190.154 214.570,190.678 214.046 C 191.108 213.616,191.766 214.006,191.552 214.565 C 191.462 214.798,191.521 214.989,191.682 214.989 C 192.140 214.989,192.027 214.197,191.509 213.767 C 191.155 213.473,190.957 213.464,190.691 213.730 C 189.975 214.446,187.496 214.162,187.051 213.312 C 186.829 212.890,186.553 212.640,186.435 212.757 M143.225 213.608 C 143.225 214.015,143.336 214.416,143.473 214.501 C 143.609 214.585,143.662 214.252,143.590 213.761 C 143.431 212.679,143.225 212.593,143.225 213.608 M144.983 213.085 C 145.813 213.243,145.693 213.969,144.859 213.841 C 144.392 213.769,144.368 213.808,144.729 214.050 C 145.241 214.394,145.950 213.950,145.950 213.286 C 145.950 213.023,145.643 212.884,145.117 212.910 C 144.378 212.947,144.363 212.966,144.983 213.085 M162.377 213.091 C 161.144 213.202,161.092 213.247,161.135 214.173 C 161.178 215.089,161.187 215.096,161.307 214.307 C 161.420 213.561,161.557 213.475,162.624 213.475 C 163.279 213.475,163.815 213.338,163.815 213.172 C 163.815 213.005,163.781 212.893,163.740 212.922 C 163.698 212.951,163.085 213.027,162.377 213.091 M282.110 213.071 C 281.998 213.182,281.908 213.605,281.908 214.012 C 281.908 214.544,281.781 214.702,281.453 214.576 C 281.204 214.480,280.999 214.544,280.999 214.718 C 280.999 215.490,282.052 214.753,282.236 213.851 C 282.447 212.818,282.435 212.745,282.110 213.071 M284.104 214.232 C 284.107 214.898,284.169 215.135,284.241 214.758 C 284.314 214.381,284.311 213.836,284.235 213.547 C 284.160 213.257,284.100 213.565,284.104 214.232 M147.275 214.220 C 147.171 214.490,147.171 214.797,147.275 214.901 C 147.379 215.005,147.464 214.862,147.464 214.585 C 147.464 213.954,147.976 213.921,148.168 214.540 C 148.277 214.890,148.300 214.878,148.266 214.490 C 148.205 213.798,147.510 213.608,147.275 214.220 M226.039 214.454 C 225.576 215.510,222.377 215.645,221.968 214.625 C 221.801 214.208,221.681 214.117,221.669 214.398 C 221.636 215.224,222.336 215.594,223.935 215.594 C 225.505 215.594,226.709 214.875,226.449 214.093 C 226.389 213.914,226.205 214.076,226.039 214.454 M293.850 214.109 C 293.737 214.292,293.260 214.385,292.789 214.316 C 292.318 214.246,292.001 214.301,292.085 214.438 C 292.341 214.852,293.618 214.715,294.020 214.232 C 294.227 213.982,294.320 213.777,294.226 213.777 C 294.132 213.777,293.963 213.927,293.850 214.109 M177.517 214.383 C 177.597 214.680,178.052 214.851,178.827 214.876 C 179.965 214.913,179.971 214.909,178.958 214.775 C 178.377 214.699,177.787 214.477,177.648 214.283 C 177.476 214.041,177.434 214.073,177.517 214.383 M196.553 214.769 C 196.506 215.492,197.801 215.970,198.789 215.594 C 199.231 215.426,199.531 215.083,199.511 214.769 C 199.479 214.288,199.461 214.285,199.341 214.743 C 199.100 215.654,196.963 215.643,196.720 214.729 C 196.606 214.301,196.583 214.306,196.553 214.769 M257.125 214.814 C 257.634 215.373,258.293 215.247,258.285 214.592 C 258.282 214.366,258.177 214.393,258.005 214.666 C 257.770 215.037,257.649 215.040,257.177 214.683 C 256.656 214.289,256.653 214.297,257.125 214.814 M264.119 214.989 C 264.186 215.238,264.571 215.468,264.975 215.499 C 265.553 215.543,265.580 215.519,265.102 215.388 C 264.769 215.296,264.384 215.067,264.246 214.878 C 264.081 214.651,264.038 214.689,264.119 214.989 M171.077 215.436 C 171.568 216.028,170.821 216.096,170.174 215.519 C 169.812 215.197,169.809 215.219,170.150 215.670 C 170.628 216.302,171.688 216.376,171.688 215.778 C 171.688 215.546,171.464 215.270,171.191 215.166 C 170.775 215.006,170.757 215.050,171.077 215.436 M188.119 215.206 C 188.580 215.276,189.261 215.274,189.633 215.202 C 190.006 215.130,189.629 215.073,188.796 215.075 C 187.964 215.078,187.659 215.136,188.119 215.206 M292.279 215.500 C 292.570 215.576,293.047 215.576,293.338 215.500 C 293.630 215.424,293.391 215.362,292.808 215.362 C 292.226 215.362,291.987 215.424,292.279 215.500 " stroke="none" fill="#c7bd9d" fill-rule="evenodd"></path><path id="path4" d="M292.270 89.192 C 291.900 89.451,291.597 89.818,291.597 90.007 C 291.597 90.196,291.779 90.102,292.001 89.799 C 292.222 89.496,292.938 89.145,293.590 89.019 C 294.663 88.812,294.689 88.787,293.860 88.755 C 293.356 88.736,292.640 88.933,292.270 89.192 M295.761 88.934 C 296.136 89.007,296.749 89.007,297.123 88.934 C 297.498 88.862,297.192 88.803,296.442 88.803 C 295.693 88.803,295.386 88.862,295.761 88.934 M298.999 89.868 C 299.156 90.099,299.378 90.854,299.491 91.548 L 299.697 92.808 299.735 91.707 C 299.758 91.035,299.566 90.379,299.243 90.027 C 298.952 89.709,298.842 89.638,298.999 89.868 M291.490 91.446 C 291.729 92.752,291.902 92.998,291.895 92.026 C 291.893 91.624,291.757 91.090,291.593 90.840 C 291.384 90.521,291.353 90.700,291.490 91.446 M292.004 95.231 C 292.005 96.563,292.058 97.071,292.122 96.358 C 292.186 95.646,292.185 94.556,292.120 93.936 C 292.055 93.316,292.003 93.899,292.004 95.231 M297.797 95.307 C 297.162 96.264,295.818 97.933,294.810 99.016 C 293.009 100.949,293.005 100.957,294.585 99.470 C 296.264 97.890,299.554 93.565,299.077 93.565 C 299.007 93.565,298.431 94.349,297.797 95.307 M291.668 98.713 C 291.668 99.296,291.730 99.534,291.806 99.243 C 291.882 98.952,291.882 98.475,291.806 98.183 C 291.730 97.892,291.668 98.130,291.668 98.713 M345.453 138.456 C 344.874 138.997,344.681 139.223,345.024 138.957 C 345.367 138.692,345.984 138.249,346.396 137.973 C 346.808 137.697,347.001 137.472,346.825 137.472 C 346.649 137.472,346.032 137.914,345.453 138.456 M348.372 138.986 C 349.023 139.652,349.623 140.197,349.707 140.197 C 349.790 140.197,349.326 139.652,348.675 138.986 C 348.025 138.319,347.424 137.774,347.341 137.774 C 347.258 137.774,347.722 138.319,348.372 138.986 M163.847 139.148 C 163.330 139.736,162.908 140.315,162.910 140.434 C 162.912 140.554,163.271 140.197,163.709 139.642 C 164.146 139.087,164.792 138.516,165.144 138.374 C 165.614 138.184,165.651 138.111,165.285 138.096 C 165.011 138.086,164.364 138.559,163.847 139.148 M161.696 142.619 C 161.356 143.285,161.146 143.830,161.229 143.830 C 161.312 143.830,161.659 143.285,161.998 142.619 C 162.338 141.953,162.548 141.408,162.465 141.408 C 162.382 141.408,162.036 141.953,161.696 142.619 M339.880 143.906 L 338.683 145.193 339.970 143.996 C 340.678 143.338,341.257 142.759,341.257 142.709 C 341.257 142.480,340.993 142.709,339.880 143.906 M345.517 146.640 C 343.614 148.675,342.977 149.455,344.102 148.372 C 345.994 146.552,349.327 142.911,349.084 142.930 C 349.026 142.935,347.421 144.604,345.517 146.640 M314.808 143.779 C 314.279 144.363,314.146 145.209,314.545 145.455 C 314.675 145.536,314.777 145.244,314.772 144.806 C 314.765 144.256,314.996 143.890,315.519 143.622 C 315.994 143.378,316.096 143.232,315.793 143.229 C 315.527 143.227,315.084 143.474,314.808 143.779 M167.044 145.967 C 166.582 146.790,166.266 147.464,166.343 147.464 C 166.548 147.464,168.128 144.711,167.997 144.580 C 167.936 144.519,167.507 145.143,167.044 145.967 M317.865 145.061 C 318.578 145.873,318.767 147.001,318.236 147.265 C 318.065 147.349,318.100 147.384,318.312 147.342 C 319.080 147.190,318.912 145.809,318.030 145.032 L 317.184 144.285 317.865 145.061 M158.268 149.446 C 157.556 150.938,157.656 151.192,158.400 149.782 C 158.738 149.142,158.961 148.565,158.895 148.499 C 158.830 148.434,158.547 148.860,158.268 149.446 M164.421 150.795 C 163.751 152.127,163.271 153.217,163.354 153.217 C 163.438 153.217,164.054 152.127,164.724 150.795 C 165.394 149.463,165.874 148.372,165.790 148.372 C 165.707 148.372,165.091 149.463,164.421 150.795 M335.188 149.601 C 334.826 150.110,334.579 150.577,334.641 150.639 C 334.703 150.701,335.060 150.284,335.434 149.713 C 336.278 148.426,336.087 148.339,335.188 149.601 M328.626 151.019 C 329.589 151.079,331.088 151.079,331.957 151.018 C 332.825 150.957,332.036 150.907,330.204 150.908 C 328.372 150.909,327.662 150.959,328.626 151.019 M347.245 151.017 C 347.957 151.081,349.047 151.080,349.667 151.015 C 350.287 150.950,349.705 150.898,348.372 150.899 C 347.040 150.900,346.533 150.953,347.245 151.017 M324.375 151.306 C 324.667 151.383,325.144 151.383,325.435 151.306 C 325.727 151.230,325.488 151.168,324.905 151.168 C 324.322 151.168,324.084 151.230,324.375 151.306 M351.628 151.306 C 351.919 151.383,352.396 151.383,352.687 151.306 C 352.979 151.230,352.740 151.168,352.157 151.168 C 351.575 151.168,351.336 151.230,351.628 151.306 M355.027 151.626 C 356.022 151.687,356.940 151.900,357.066 152.099 C 357.221 152.343,357.297 152.288,357.300 151.930 C 357.304 151.472,357.029 151.408,355.261 151.458 L 353.217 151.515 355.027 151.626 M156.451 153.383 C 155.740 154.874,155.840 155.128,156.583 153.719 C 156.921 153.078,157.144 152.501,157.078 152.435 C 157.013 152.370,156.731 152.796,156.451 153.383 M329.447 153.520 C 329.122 153.730,329.439 153.815,330.565 153.818 C 331.430 153.821,332.221 153.687,332.324 153.520 C 332.568 153.126,330.058 153.126,329.447 153.520 M195.331 154.618 C 194.849 155.230,194.747 155.671,194.887 156.544 C 195.042 157.517,194.947 157.792,194.203 158.508 L 193.338 159.340 194.175 158.815 C 195.093 158.239,195.473 157.247,195.157 156.252 C 194.792 155.100,195.710 154.174,197.346 154.046 L 198.789 153.932 197.372 153.877 C 196.170 153.831,195.862 153.943,195.331 154.618 M273.883 154.591 C 273.126 154.955,273.101 154.997,273.732 154.843 C 274.590 154.633,275.554 154.142,275.095 154.149 C 274.928 154.151,274.383 154.350,273.883 154.591 M284.027 154.443 C 285.078 155.156,285.676 155.364,284.936 154.758 C 284.519 154.418,284.042 154.138,283.876 154.137 C 283.709 154.136,283.777 154.274,284.027 154.443 M348.907 154.646 C 349.367 154.715,350.048 154.713,350.421 154.642 C 350.793 154.570,350.416 154.513,349.584 154.515 C 348.751 154.517,348.446 154.576,348.907 154.646 M344.202 154.950 C 344.740 155.017,345.694 155.018,346.322 154.952 C 346.950 154.887,346.510 154.832,345.344 154.831 C 344.179 154.829,343.665 154.883,344.202 154.950 M155.095 156.609 C 154.732 157.467,154.483 158.218,154.542 158.276 C 154.601 158.335,154.949 157.685,155.317 156.831 C 155.684 155.977,155.933 155.226,155.869 155.163 C 155.806 155.099,155.457 155.750,155.095 156.609 M270.326 156.114 C 269.534 156.526,268.887 156.930,268.887 157.013 C 268.887 157.148,271.885 155.732,272.193 155.452 C 272.568 155.110,271.583 155.459,270.326 156.114 M309.106 156.170 C 308.386 157.016,307.288 158.668,307.445 158.668 C 307.524 158.668,308.078 157.986,308.677 157.154 C 309.754 155.654,309.975 155.148,309.106 156.170 M328.615 155.865 C 331.566 155.978,331.506 155.934,330.634 157.345 C 330.287 157.906,330.072 158.365,330.155 158.365 C 330.485 158.365,331.598 156.237,331.419 155.948 C 331.308 155.769,330.126 155.666,328.597 155.702 L 325.965 155.764 328.615 155.865 M171.915 157.630 C 170.783 158.244,170.852 158.500,171.991 157.911 C 172.491 157.652,172.899 157.376,172.899 157.297 C 172.899 157.102,172.867 157.113,171.915 157.630 M160.387 159.136 C 159.676 160.628,159.776 160.881,160.520 159.472 C 160.858 158.832,161.080 158.254,161.015 158.189 C 160.949 158.123,160.667 158.550,160.387 159.136 M205.073 158.668 C 205.140 158.917,205.525 159.147,205.928 159.178 C 206.507 159.222,206.534 159.198,206.056 159.067 C 205.723 158.975,205.338 158.746,205.200 158.557 C 205.035 158.330,204.992 158.368,205.073 158.668 M335.337 160.515 C 334.906 161.364,334.605 162.109,334.667 162.172 C 334.729 162.234,335.146 161.539,335.593 160.627 C 336.040 159.716,336.341 158.970,336.262 158.970 C 336.184 158.970,335.767 159.665,335.337 160.515 M209.771 159.493 C 210.315 159.560,211.133 159.559,211.588 159.490 C 212.043 159.421,211.597 159.365,210.598 159.367 C 209.599 159.369,209.227 159.425,209.771 159.493 M283.422 161.176 C 282.339 162.217,280.928 163.517,280.286 164.066 C 279.644 164.615,279.173 165.118,279.239 165.184 C 279.305 165.250,280.784 163.954,282.526 162.304 C 284.268 160.654,285.625 159.299,285.541 159.294 C 285.458 159.288,284.504 160.135,283.422 161.176 M213.248 159.785 C 213.539 159.861,214.016 159.861,214.307 159.785 C 214.599 159.709,214.360 159.646,213.777 159.646 C 213.195 159.646,212.956 159.709,213.248 159.785 M306.247 160.257 C 305.205 162.026,305.137 162.177,305.668 161.544 C 306.283 160.812,306.813 159.879,306.614 159.879 C 306.535 159.879,306.370 160.049,306.247 160.257 M153.116 161.443 C 152.842 162.141,152.668 162.761,152.728 162.822 C 152.789 162.882,153.066 162.364,153.343 161.670 C 153.621 160.977,153.796 160.356,153.731 160.292 C 153.667 160.228,153.390 160.746,153.116 161.443 M166.529 161.415 L 165.481 162.345 166.616 161.530 C 167.620 160.810,167.946 160.484,167.665 160.484 C 167.617 160.484,167.106 160.903,166.529 161.415 M191.370 162.150 C 190.855 162.899,190.501 163.512,190.584 163.512 C 190.667 163.512,191.157 162.899,191.673 162.150 C 192.189 161.400,192.542 160.787,192.459 160.787 C 192.376 160.787,191.886 161.400,191.370 162.150 M250.564 161.769 L 251.771 162.839 251.419 164.157 C 250.964 165.863,251.166 166.082,251.663 164.422 C 252.103 162.953,251.935 162.556,250.400 161.450 C 249.495 160.798,249.517 160.841,250.564 161.769 M197.628 161.292 C 197.517 161.403,197.428 161.641,197.431 161.822 C 197.434 162.037,197.512 162.029,197.659 161.799 C 197.782 161.606,198.291 161.388,198.790 161.314 L 199.697 161.181 198.764 161.135 C 198.250 161.110,197.739 161.181,197.628 161.292 M264.667 161.435 C 264.657 161.708,264.886 162.191,265.178 162.509 C 265.469 162.827,265.611 162.937,265.493 162.753 C 265.375 162.570,265.145 162.087,264.982 161.679 C 264.795 161.211,264.679 161.121,264.667 161.435 M239.658 165.405 C 236.293 168.847,232.672 172.770,234.697 170.780 C 236.910 168.604,243.246 161.998,243.119 161.998 C 243.047 161.998,241.489 163.531,239.658 165.405 M206.435 162.515 C 206.809 162.587,207.422 162.587,207.797 162.515 C 208.172 162.443,207.865 162.384,207.116 162.384 C 206.366 162.384,206.060 162.443,206.435 162.515 M327.967 163.243 C 327.780 163.778,327.681 164.269,327.746 164.334 C 327.810 164.399,328.016 164.014,328.203 163.479 C 328.389 162.944,328.489 162.453,328.424 162.388 C 328.359 162.323,328.154 162.708,327.967 163.243 M205.688 164.269 C 205.691 165.102,205.750 165.407,205.819 164.947 C 205.889 164.486,205.887 163.805,205.815 163.433 C 205.743 163.060,205.686 163.437,205.688 164.269 M311.698 163.588 C 310.655 165.357,310.587 165.508,311.118 164.875 C 311.733 164.142,312.263 163.210,312.065 163.210 C 311.986 163.210,311.820 163.380,311.698 163.588 M160.282 167.011 C 158.180 169.272,157.155 170.166,156.778 170.067 C 156.443 169.980,156.245 170.098,156.245 170.386 C 156.245 170.680,156.418 170.778,156.724 170.661 C 156.988 170.560,157.237 170.477,157.279 170.477 C 157.320 170.477,158.751 168.978,160.457 167.146 C 162.164 165.314,163.491 163.815,163.407 163.815 C 163.323 163.815,161.917 165.253,160.282 167.011 M171.374 164.746 L 170.326 165.676 171.461 164.861 C 172.464 164.141,172.791 163.815,172.509 163.815 C 172.461 163.815,171.950 164.234,171.374 164.746 M180.526 165.495 C 179.614 167.373,179.716 167.636,180.656 165.830 C 181.076 165.022,181.368 164.310,181.304 164.247 C 181.241 164.183,180.891 164.745,180.526 165.495 M268.660 164.309 C 269.437 164.538,269.543 164.406,264.875 169.014 L 260.560 173.274 264.951 169.096 C 269.406 164.856,269.817 164.327,268.736 164.215 C 268.265 164.167,268.248 164.188,268.660 164.309 M168.797 166.919 L 167.600 168.206 168.887 167.009 C 170.084 165.896,170.313 165.632,170.084 165.632 C 170.035 165.632,169.456 166.211,168.797 166.919 M172.815 167.516 C 172.364 168.536,172.043 169.418,172.100 169.476 C 172.158 169.534,172.578 168.750,173.034 167.735 C 173.490 166.719,173.811 165.838,173.749 165.775 C 173.686 165.712,173.266 166.496,172.815 167.516 M302.483 166.873 C 302.135 167.555,301.902 168.165,301.966 168.229 C 302.029 168.292,302.378 167.734,302.740 166.988 C 303.565 165.290,303.342 165.189,302.483 166.873 M309.696 166.919 C 309.033 167.940,308.439 169.157,308.771 168.812 C 309.196 168.370,310.445 166.238,310.279 166.238 C 310.201 166.238,309.939 166.544,309.696 166.919 M156.886 168.084 C 156.700 168.617,156.558 169.203,156.569 169.387 C 156.581 169.570,156.786 169.187,157.025 168.535 C 157.264 167.884,157.406 167.297,157.341 167.233 C 157.277 167.168,157.072 167.551,156.886 168.084 M178.555 169.734 C 177.844 171.226,177.944 171.479,178.688 170.070 C 179.026 169.430,179.248 168.852,179.183 168.787 C 179.117 168.721,178.835 169.148,178.555 169.734 M193.695 169.734 C 192.984 171.226,193.084 171.479,193.828 170.070 C 194.166 169.430,194.388 168.852,194.323 168.787 C 194.257 168.721,193.975 169.148,193.695 169.734 M273.566 169.947 L 272.369 171.234 273.656 170.037 C 274.364 169.379,274.943 168.800,274.943 168.750 C 274.943 168.521,274.680 168.750,273.566 169.947 M325.684 169.742 C 325.573 170.185,325.540 170.607,325.611 170.678 C 325.683 170.750,325.832 170.445,325.944 170.001 C 326.055 169.557,326.088 169.136,326.016 169.064 C 325.945 168.993,325.795 169.298,325.684 169.742 M307.783 170.202 C 307.516 170.717,307.352 171.193,307.418 171.258 C 307.483 171.324,307.764 170.903,308.041 170.322 C 308.663 169.016,308.448 168.916,307.783 170.202 M164.129 171.492 L 162.778 173.051 164.356 171.548 C 165.225 170.722,165.935 170.006,165.935 169.958 C 165.935 169.607,165.283 170.161,164.129 171.492 M171.435 170.641 C 170.927 171.755,171.024 171.992,171.573 170.980 C 171.829 170.507,171.982 170.064,171.912 169.995 C 171.843 169.925,171.628 170.216,171.435 170.641 M186.559 171.116 C 186.372 171.651,186.273 172.142,186.338 172.207 C 186.402 172.272,186.608 171.887,186.795 171.352 C 186.981 170.817,187.081 170.326,187.016 170.261 C 186.951 170.196,186.746 170.581,186.559 171.116 M267.370 175.852 L 262.680 180.621 267.449 175.931 C 271.879 171.574,272.355 171.083,272.139 171.083 C 272.095 171.083,269.949 173.229,267.370 175.852 M218.066 172.155 C 217.559 173.269,217.655 173.506,218.204 172.494 C 218.460 172.021,218.613 171.578,218.544 171.509 C 218.474 171.439,218.259 171.730,218.066 172.155 M231.945 173.656 C 231.210 174.406,230.676 175.019,230.760 175.019 C 230.843 175.019,231.513 174.406,232.248 173.656 C 232.984 172.907,233.517 172.294,233.434 172.294 C 233.351 172.294,232.681 172.907,231.945 173.656 M247.877 173.691 C 247.609 174.478,247.443 175.174,247.507 175.238 C 247.571 175.302,247.842 174.711,248.110 173.924 C 248.378 173.137,248.545 172.441,248.481 172.377 C 248.417 172.313,248.146 172.905,247.877 173.691 M324.776 173.072 C 324.664 173.516,324.631 173.938,324.703 174.009 C 324.774 174.080,324.924 173.776,325.035 173.332 C 325.147 172.888,325.179 172.467,325.108 172.395 C 325.037 172.324,324.887 172.629,324.776 173.072 M239.049 174.795 L 237.245 176.684 239.137 174.877 C 240.888 173.205,241.032 173.125,241.065 173.817 C 241.091 174.383,241.135 174.428,241.244 174.003 C 241.579 172.704,240.765 172.997,239.049 174.795 M162.259 173.732 C 161.388 174.784,161.019 175.322,161.168 175.322 C 161.252 175.322,161.685 174.845,162.129 174.262 C 162.954 173.180,163.054 172.772,162.259 173.732 M257.577 176.801 C 255.305 179.531,253.291 182.286,253.567 182.286 C 253.650 182.286,254.151 181.657,254.679 180.889 C 255.208 180.121,256.648 178.281,257.880 176.801 C 259.112 175.321,260.051 174.111,259.968 174.111 C 259.885 174.111,258.809 175.321,257.577 176.801 M148.130 175.534 C 147.682 176.994,147.899 177.211,148.372 175.776 C 148.572 175.171,148.677 174.617,148.605 174.545 C 148.533 174.473,148.319 174.918,148.130 175.534 M299.038 175.192 C 298.926 175.636,298.893 176.057,298.965 176.129 C 299.036 176.200,299.186 175.895,299.297 175.451 C 299.408 175.008,299.441 174.586,299.370 174.515 C 299.298 174.444,299.149 174.748,299.038 175.192 M324.186 175.360 C 323.934 176.622,324.178 176.866,324.451 175.625 C 324.566 175.101,324.597 174.610,324.520 174.533 C 324.443 174.455,324.293 174.828,324.186 175.360 M185.384 175.927 C 185.384 176.510,185.447 176.749,185.523 176.457 C 185.599 176.166,185.599 175.689,185.523 175.397 C 185.447 175.106,185.384 175.344,185.384 175.927 M223.221 176.699 C 222.309 178.577,222.411 178.839,223.351 177.033 C 223.771 176.226,224.063 175.513,223.999 175.450 C 223.936 175.387,223.586 175.949,223.221 176.699 M228.009 177.192 C 226.472 178.632,226.372 178.769,227.555 177.818 C 228.968 176.682,230.379 175.305,230.100 175.335 C 230.032 175.342,229.092 176.178,228.009 177.192 M160.182 176.533 C 159.826 177.033,159.603 177.441,159.686 177.441 C 159.770 177.441,160.129 177.033,160.484 176.533 C 160.840 176.033,161.063 175.625,160.980 175.625 C 160.897 175.625,160.537 176.033,160.182 176.533 M204.727 176.567 C 204.541 177.102,204.441 177.593,204.506 177.657 C 204.570 177.722,204.776 177.337,204.963 176.802 C 205.149 176.267,205.249 175.776,205.184 175.711 C 205.119 175.647,204.914 176.031,204.727 176.567 M304.667 176.697 C 304.160 177.811,304.256 178.048,304.805 177.036 C 305.061 176.563,305.214 176.120,305.145 176.051 C 305.076 175.981,304.860 176.272,304.667 176.697 M174.977 177.921 C 174.639 178.684,174.416 179.362,174.482 179.428 C 174.548 179.494,174.888 178.869,175.238 178.040 C 175.589 177.211,175.811 176.533,175.733 176.533 C 175.655 176.533,175.314 177.157,174.977 177.921 M246.540 177.653 C 246.351 178.269,246.247 178.823,246.308 178.885 C 246.369 178.946,246.583 178.501,246.783 177.896 C 246.982 177.290,247.087 176.736,247.015 176.664 C 246.943 176.592,246.730 177.037,246.540 177.653 M235.448 178.581 C 234.554 179.620,234.352 179.953,234.946 179.410 C 235.844 178.586,237.274 176.830,237.038 176.840 C 236.985 176.842,236.270 177.625,235.448 178.581 M190.332 178.826 C 190.221 179.269,190.188 179.691,190.259 179.762 C 190.331 179.834,190.480 179.529,190.592 179.085 C 190.703 178.641,190.736 178.220,190.664 178.149 C 190.593 178.077,190.443 178.382,190.332 178.826 M158.480 179.031 C 157.438 180.799,157.370 180.950,157.901 180.318 C 158.516 179.585,159.046 178.653,158.848 178.653 C 158.768 178.653,158.603 178.823,158.480 179.031 M221.970 179.226 C 221.735 179.666,221.786 179.893,222.187 180.196 C 222.625 180.527,222.651 180.525,222.346 180.181 C 222.093 179.897,222.073 179.600,222.281 179.212 C 222.445 178.904,222.512 178.653,222.429 178.653 C 222.345 178.653,222.139 178.911,221.970 179.226 M146.729 179.734 C 146.617 180.178,146.585 180.599,146.656 180.671 C 146.727 180.742,146.877 180.437,146.988 179.994 C 147.100 179.550,147.132 179.128,147.061 179.057 C 146.990 178.986,146.840 179.290,146.729 179.734 M232.683 181.151 L 231.794 182.135 232.778 181.245 C 233.319 180.756,233.762 180.313,233.762 180.261 C 233.762 180.027,233.512 180.233,232.683 181.151 M271.601 181.097 L 270.553 182.027 271.688 181.212 C 272.692 180.492,273.018 180.167,272.736 180.167 C 272.689 180.167,272.178 180.585,271.601 181.097 M173.453 181.531 C 173.192 182.105,173.106 182.497,173.261 182.401 C 173.570 182.210,174.188 180.748,174.027 180.587 C 173.971 180.532,173.713 180.957,173.453 181.531 M298.632 181.378 C 298.632 181.961,298.694 182.199,298.770 181.908 C 298.847 181.616,298.847 181.139,298.770 180.848 C 298.694 180.556,298.632 180.795,298.632 181.378 M169.569 181.041 C 169.569 181.329,171.048 182.739,171.166 182.565 C 171.214 182.495,170.874 182.072,170.411 181.624 C 169.947 181.177,169.569 180.915,169.569 181.041 M201.389 182.324 C 200.653 183.178,199.435 184.268,198.680 184.747 C 197.925 185.225,197.440 185.617,197.602 185.617 C 198.316 185.617,201.182 183.178,202.317 181.605 C 203.247 180.316,202.860 180.616,201.389 182.324 M261.604 181.908 L 260.560 183.043 261.696 182.000 C 262.753 181.028,262.970 180.772,262.739 180.772 C 262.689 180.772,262.178 181.283,261.604 181.908 M302.995 181.441 C 302.893 181.823,302.828 182.952,302.851 183.952 C 302.891 185.725,302.897 185.710,303.104 183.346 C 303.327 180.788,303.300 180.304,302.995 181.441 M217.744 181.681 C 218.419 183.160,221.360 185.706,221.840 185.226 C 221.913 185.153,221.561 184.922,221.058 184.714 C 220.208 184.362,218.687 182.871,217.783 181.505 C 217.455 181.009,217.449 181.034,217.744 181.681 M244.993 182.314 C 244.789 182.997,244.677 183.612,244.745 183.680 C 244.813 183.748,245.036 183.245,245.241 182.561 C 245.446 181.878,245.558 181.263,245.490 181.195 C 245.422 181.127,245.198 181.630,244.993 182.314 M186.765 182.438 C 186.938 182.771,187.533 183.452,188.089 183.951 L 189.099 184.859 188.040 183.648 C 187.458 182.982,186.862 182.301,186.716 182.135 C 186.570 181.968,186.592 182.104,186.765 182.438 M299.405 183.952 C 299.577 184.285,300.105 184.897,300.578 185.313 L 301.438 186.069 300.532 185.010 C 299.097 183.333,299.077 183.314,299.405 183.952 M145.102 184.921 C 144.654 186.380,144.871 186.597,145.344 185.163 C 145.544 184.558,145.649 184.003,145.577 183.932 C 145.505 183.860,145.291 184.305,145.102 184.921 M238.718 187.585 C 238.718 189.251,238.769 189.893,238.831 189.013 C 238.892 188.133,238.891 186.771,238.829 185.985 C 238.767 185.200,238.717 185.920,238.718 187.585 M322.241 186.879 C 322.177 189.303,322.338 190.159,322.855 190.159 C 323.054 190.159,323.047 190.020,322.837 189.766 C 322.657 189.550,322.464 188.290,322.406 186.965 L 322.302 184.557 322.241 186.879 M251.374 185.781 C 250.867 186.895,250.963 187.132,251.512 186.120 C 251.768 185.647,251.921 185.204,251.852 185.135 C 251.783 185.065,251.568 185.356,251.374 185.781 M265.556 185.957 C 264.501 186.882,264.501 186.883,265.472 186.237 C 266.008 185.881,266.527 185.459,266.625 185.300 C 266.917 184.827,266.675 184.976,265.556 185.957 M302.026 186.357 C 302.726 186.918,303.104 186.959,303.104 186.475 C 303.104 186.281,303.018 186.208,302.912 186.313 C 302.807 186.418,302.433 186.365,302.080 186.195 C 301.456 185.895,301.455 185.900,302.026 186.357 M193.267 186.440 C 193.727 186.509,194.408 186.508,194.781 186.436 C 195.153 186.364,194.777 186.307,193.944 186.309 C 193.111 186.311,192.807 186.370,193.267 186.440 M326.150 188.073 C 325.964 188.608,325.864 189.099,325.929 189.164 C 325.994 189.228,326.199 188.844,326.386 188.309 C 326.572 187.773,326.672 187.283,326.607 187.218 C 326.542 187.153,326.337 187.538,326.150 188.073 M256.624 188.645 C 256.365 189.145,256.222 189.553,256.305 189.553 C 256.389 189.553,256.668 189.145,256.927 188.645 C 257.185 188.145,257.328 187.737,257.245 187.737 C 257.162 187.737,256.882 188.145,256.624 188.645 M268.116 190.840 L 266.919 192.127 268.206 190.930 C 269.403 189.817,269.632 189.553,269.403 189.553 C 269.353 189.553,268.774 190.132,268.116 190.840 M251.187 190.840 C 251.300 191.215,251.517 191.655,251.670 191.817 C 251.822 191.980,251.794 191.674,251.606 191.136 C 251.223 190.036,250.869 189.786,251.187 190.840 M150.322 191.446 L 149.432 192.430 150.416 191.541 C 151.334 190.712,151.540 190.462,151.306 190.462 C 151.254 190.462,150.811 190.905,150.322 191.446 M148.812 192.855 C 148.653 193.005,148.251 193.194,147.918 193.274 C 147.344 193.412,147.346 193.421,147.957 193.455 C 148.311 193.474,148.771 193.285,148.978 193.036 C 149.389 192.540,149.274 192.415,148.812 192.855 M253.495 194.171 C 254.120 194.796,254.808 195.302,255.022 195.297 C 255.237 195.292,255.140 195.138,254.807 194.955 C 254.474 194.771,253.787 194.264,253.280 193.828 C 252.766 193.387,252.862 193.539,253.495 194.171 M312.325 209.011 C 311.987 209.892,312.328 215.391,312.725 215.471 C 312.938 215.514,312.972 215.480,312.801 215.395 C 312.614 215.302,312.508 213.958,312.534 212.011 C 312.565 209.679,312.637 209.118,312.793 209.992 L 313.010 211.204 313.053 210.086 C 313.097 208.951,312.619 208.245,312.325 209.011 M264.232 209.396 C 263.933 210.176,264.020 214.486,264.345 214.989 C 264.558 215.319,264.640 215.334,264.643 215.046 C 264.646 214.828,264.798 214.743,264.981 214.856 C 265.223 215.006,265.223 214.892,264.981 214.439 C 264.045 212.691,264.702 209.423,265.956 209.587 C 266.387 209.643,266.780 209.553,266.829 209.387 C 266.993 208.833,264.445 208.842,264.232 209.396 M292.051 209.143 C 290.880 209.436,291.042 209.690,292.448 209.767 C 293.347 209.815,293.979 210.019,294.171 210.323 C 295.054 211.720,295.211 211.845,295.221 211.161 C 295.241 209.804,293.597 208.756,292.051 209.143 M161.998 209.350 C 161.998 209.413,162.229 209.651,162.511 209.880 C 162.793 210.108,162.928 210.137,162.812 209.943 C 162.695 209.749,162.771 209.521,162.981 209.437 C 163.190 209.352,163.055 209.272,162.680 209.259 C 162.305 209.246,161.998 209.287,161.998 209.350 M169.630 211.885 L 169.692 214.534 169.794 212.026 C 169.865 210.281,169.999 209.581,170.233 209.726 C 170.438 209.853,170.485 209.797,170.354 209.585 C 169.804 208.695,169.573 209.430,169.630 211.885 M178.062 209.671 C 177.366 210.510,177.792 211.797,178.803 211.912 C 179.302 211.969,179.791 212.145,179.889 212.304 C 179.987 212.463,180.086 212.091,180.109 211.477 C 180.132 210.863,180.222 210.291,180.308 210.205 C 180.394 210.119,180.312 209.865,180.127 209.642 C 179.682 209.106,178.517 209.123,178.062 209.671 M196.821 209.690 C 196.560 210.003,196.549 210.144,196.784 210.144 C 196.970 210.144,197.123 210.031,197.123 209.893 C 197.123 209.756,197.552 209.706,198.075 209.783 C 198.734 209.879,198.961 209.817,198.814 209.579 C 198.509 209.086,197.264 209.155,196.821 209.690 M214.058 209.311 C 213.929 209.745,213.855 210.807,213.973 210.522 C 214.372 209.564,214.669 210.347,214.749 212.568 C 214.799 213.930,214.970 214.990,215.140 214.986 C 215.486 214.977,215.458 209.590,215.110 209.280 C 214.990 209.172,214.990 209.254,215.109 209.463 C 215.257 209.719,215.102 209.840,214.628 209.836 C 214.066 209.833,214.018 209.774,214.383 209.538 C 214.686 209.343,214.711 209.243,214.459 209.240 C 214.251 209.238,214.070 209.269,214.058 209.311 M222.485 209.437 C 222.694 209.521,222.788 209.715,222.694 209.867 C 222.419 210.311,222.753 210.186,223.164 209.690 C 223.482 209.307,223.428 209.239,222.823 209.259 C 222.428 209.272,222.276 209.352,222.485 209.437 M225.319 209.917 C 225.346 210.435,225.387 210.470,225.493 210.064 C 225.570 209.771,225.780 209.622,225.959 209.733 C 226.153 209.853,226.198 209.793,226.070 209.585 C 225.710 209.003,225.282 209.192,225.319 209.917 M239.213 209.429 C 239.580 209.529,239.661 210.119,239.636 212.498 C 239.616 214.489,239.665 214.956,239.788 213.941 C 239.942 212.669,240.086 212.407,240.727 212.230 L 241.484 212.021 240.651 211.991 C 239.907 211.964,239.818 211.848,239.818 210.901 C 239.818 209.506,241.053 209.362,241.765 210.674 L 242.216 211.506 242.229 210.734 C 242.246 209.616,241.696 209.231,240.136 209.271 C 239.379 209.290,238.963 209.361,239.213 209.429 M305.084 209.519 C 304.967 209.708,305.077 209.762,305.359 209.654 C 305.763 209.499,305.825 209.848,305.799 212.155 C 305.777 214.055,305.693 214.616,305.511 214.080 L 305.253 213.323 305.314 214.057 C 305.347 214.460,305.550 214.848,305.765 214.918 C 306.069 215.018,306.136 214.425,306.068 212.241 C 305.986 209.611,305.632 208.632,305.084 209.519 M179.913 210.447 C 179.768 211.528,179.375 211.828,178.759 211.327 C 178.418 211.051,178.313 211.034,178.461 211.279 C 178.586 211.488,178.560 211.658,178.403 211.658 C 178.183 211.658,178.143 210.523,178.330 209.594 C 178.454 208.982,179.998 209.814,179.913 210.447 M257.883 209.765 C 257.721 210.028,257.592 211.598,257.678 212.263 C 257.734 212.705,257.977 212.066,258.397 210.371 C 258.585 209.614,258.231 209.197,257.883 209.765 M160.243 212.491 C 160.189 214.981,160.240 215.291,160.712 215.287 C 161.074 215.284,161.126 215.209,160.876 215.050 C 160.653 214.908,160.471 213.821,160.408 212.254 L 160.305 209.690 160.243 212.491 M186.415 210.078 C 186.341 210.197,186.841 210.335,187.525 210.383 C 188.951 210.483,188.948 210.317,187.521 210.046 C 186.986 209.944,186.489 209.959,186.415 210.078 M221.968 211.204 C 221.955 212.036,221.876 213.058,221.791 213.475 C 221.655 214.147,221.672 214.164,221.941 213.626 C 222.194 213.120,222.232 213.195,222.174 214.080 L 222.104 215.140 223.780 215.229 C 225.340 215.312,225.459 215.270,225.505 214.623 C 225.548 214.005,225.520 213.988,225.245 214.472 C 225.014 214.878,224.617 214.998,223.661 214.948 L 222.385 214.882 222.497 213.043 C 222.558 212.031,222.469 210.863,222.300 210.447 C 222.029 209.781,221.989 209.872,221.968 211.204 M247.555 210.891 C 247.797 211.469,247.994 212.627,247.994 213.465 C 247.994 214.532,248.115 214.989,248.397 214.989 C 248.923 214.989,248.707 211.868,248.099 210.674 C 247.486 209.469,247.036 209.649,247.555 210.891 M281.252 211.658 C 281.224 212.657,281.190 213.702,281.176 213.979 C 281.131 214.867,281.859 214.767,281.962 213.871 C 282.048 213.117,282.181 213.020,283.130 213.020 C 283.920 213.020,284.201 212.890,284.201 212.525 C 284.200 212.149,283.933 212.039,283.094 212.071 C 282.400 212.097,282.037 212.241,282.120 212.460 C 282.192 212.651,282.092 212.907,281.896 213.027 C 281.634 213.189,281.581 212.800,281.693 211.544 C 281.776 210.607,281.722 209.841,281.573 209.841 C 281.424 209.841,281.279 210.659,281.252 211.658 M300.766 212.331 C 300.597 213.543,300.500 214.582,300.550 214.640 C 300.859 215.001,301.287 214.174,301.287 213.215 C 301.287 212.592,301.402 211.952,301.543 211.794 C 301.685 211.635,301.637 211.199,301.435 210.817 C 301.109 210.198,301.040 210.353,300.766 212.331 M226.286 212.112 C 226.288 213.111,226.344 213.484,226.412 212.939 C 226.479 212.395,226.478 211.578,226.409 211.123 C 226.340 210.668,226.284 211.113,226.286 212.112 M144.870 211.084 C 144.727 211.316,144.773 211.370,144.997 211.231 C 145.209 211.100,145.450 211.284,145.601 211.692 L 145.851 212.370 146.032 211.681 C 146.131 211.302,146.131 211.073,146.033 211.171 C 145.935 211.269,145.684 211.208,145.475 211.035 C 145.209 210.814,145.028 210.829,144.870 211.084 M291.377 211.961 C 291.377 212.710,291.436 213.017,291.508 212.642 C 291.580 212.267,291.580 211.654,291.508 211.279 C 291.436 210.905,291.377 211.211,291.377 211.961 M170.268 212.718 C 170.270 213.717,170.326 214.089,170.394 213.545 C 170.461 213.001,170.460 212.183,170.390 211.728 C 170.321 211.273,170.266 211.718,170.268 212.718 M254.548 212.435 C 254.259 214.545,254.304 214.989,254.807 214.989 C 255.152 214.989,255.261 214.614,255.261 213.438 C 255.261 212.050,255.312 211.929,255.746 212.289 C 256.354 212.794,257.022 212.902,257.251 212.532 C 257.347 212.376,257.289 212.286,257.122 212.332 C 256.955 212.377,256.604 212.142,256.342 211.809 L 255.865 211.204 256.074 211.809 C 256.283 212.415,255.500 212.038,254.927 211.257 C 254.826 211.120,254.656 211.650,254.548 212.435 M268.055 212.112 C 268.059 212.778,268.121 213.015,268.193 212.638 C 268.265 212.262,268.263 211.717,268.187 211.427 C 268.111 211.138,268.052 211.446,268.055 212.112 M304.012 211.961 C 303.571 213.025,303.223 213.116,302.945 212.241 C 302.835 211.895,302.679 211.679,302.597 211.760 C 302.516 211.842,302.597 212.184,302.777 212.521 C 303.179 213.273,304.121 213.248,304.606 212.473 C 304.881 212.033,304.881 211.949,304.608 212.118 C 304.356 212.274,304.310 212.149,304.454 211.696 C 304.761 210.731,304.443 210.921,304.012 211.961 M305.144 211.279 C 305.080 211.404,305.124 211.915,305.242 212.415 C 305.451 213.308,305.455 213.304,305.490 212.188 C 305.524 211.110,305.398 210.778,305.144 211.279 M196.858 212.695 C 196.363 214.659,196.822 215.427,198.445 215.351 C 199.119 215.319,199.110 215.328,199.389 214.421 C 199.541 213.927,199.505 213.767,199.275 213.909 C 199.091 214.023,198.940 214.321,198.940 214.572 C 198.940 214.892,198.690 215.000,198.107 214.933 C 197.028 214.809,196.875 212.758,197.880 211.895 C 198.484 211.377,198.484 211.375,197.841 211.365 C 197.327 211.357,197.126 211.629,196.858 212.695 M294.472 213.475 C 294.155 214.058,293.915 214.612,293.939 214.706 C 294.073 215.231,292.121 214.525,291.896 213.967 C 291.726 213.547,291.629 213.486,291.616 213.793 C 291.606 214.051,291.761 214.425,291.961 214.625 C 292.444 215.109,291.838 215.095,291.294 214.610 C 290.931 214.287,290.930 214.311,291.283 214.777 C 292.303 216.121,295.520 214.637,295.170 212.984 C 295.072 212.524,294.938 212.619,294.472 213.475 M257.533 213.739 C 257.670 214.671,257.637 214.725,257.153 214.361 C 256.651 213.983,256.651 213.991,257.146 214.533 C 257.854 215.306,258.089 214.968,257.702 213.735 L 257.383 212.718 257.533 213.739 M177.441 213.795 C 177.441 213.972,177.601 214.017,177.796 213.897 C 178.034 213.750,178.087 213.843,177.956 214.182 C 177.680 214.901,179.924 214.894,180.508 214.174 C 180.867 213.731,180.861 213.699,180.469 213.937 C 179.939 214.259,178.629 214.151,178.213 213.751 C 177.827 213.379,177.441 213.401,177.441 213.795 M186.525 213.821 C 186.525 214.893,190.938 215.631,191.538 214.659 C 191.862 214.134,191.142 213.582,190.704 214.020 C 190.159 214.565,187.732 214.473,187.079 213.882 C 186.622 213.468,186.525 213.458,186.525 213.821 M145.525 214.032 C 145.439 214.172,144.960 214.263,144.460 214.233 C 143.319 214.165,143.528 214.571,144.776 214.845 C 145.479 215.000,145.838 214.915,146.211 214.507 C 146.679 213.993,146.674 213.987,146.120 214.400 C 145.592 214.794,145.554 214.784,145.732 214.307 C 145.937 213.760,145.804 213.582,145.525 214.032 M169.876 214.876 C 169.870 215.318,170.674 215.985,171.051 215.850 C 171.214 215.792,171.151 215.485,170.910 215.158 C 170.601 214.739,170.476 214.695,170.472 215.006 C 170.468 215.375,170.422 215.372,170.174 214.989 C 170.013 214.739,169.878 214.688,169.876 214.876 " stroke="none" fill="#7b7b7c" fill-rule="evenodd"></path></g></svg>